<svg width="24" height="24" viewBox="0 0 24 24" fill="black" xmlns="http://www.w3.org/2000/svg">
<path fill-rule="evenodd" clip-rule="evenodd" d="M1.39308 13.2525C0.573727 12.6185 0.573726 11.3815 1.39308 10.7475C3.55215 9.0769 5.96306 7.76012 8.53556 6.84646L9.00161 6.68094C10.0251 6.31742 11.1019 7.0099 11.2399 8.06198C11.3536 8.92899 11.4293 9.80786 11.4669 10.6906C13.607 9.047 15.9923 7.74973 18.5356 6.84646L19.0016 6.68094C20.0251 6.31742 21.1019 7.0099 21.2399 8.06198C21.5796 10.6521 21.5796 13.3479 21.2399 15.938C21.1019 16.9901 20.0251 17.6826 19.0016 17.319L18.5356 17.1535C15.9923 16.2503 13.607 14.953 11.4669 13.3093C11.4293 14.1921 11.3536 15.071 11.2399 15.938C11.1019 16.9901 10.0251 17.6826 9.00161 17.319L8.53556 17.1535C5.96306 16.2399 3.55215 14.9231 1.39308 13.2525ZM2.31102 11.9338C2.26775 11.9673 2.26775 12.0327 2.31102 12.0661C4.34437 13.6395 6.61488 14.8796 9.03758 15.74L9.50363 15.9055C9.60384 15.9411 9.73557 15.8733 9.75266 15.743C10.0754 13.2824 10.0754 10.7176 9.75266 8.25703C9.73557 8.12673 9.60384 8.05885 9.50364 8.09443L9.03759 8.25996C6.61489 9.12041 4.34436 10.3605 2.31102 11.9338ZM12.311 11.9338C12.2677 11.9673 12.2677 12.0327 12.311 12.0661C14.3444 13.6395 16.6149 14.8796 19.0376 15.74L19.5036 15.9055C19.6038 15.9411 19.7356 15.8733 19.7527 15.743C20.0754 13.2824 20.0754 10.7176 19.7527 8.25703C19.7356 8.12673 19.6038 8.05885 19.5036 8.09443L19.0376 8.25996C16.6149 9.12041 14.3444 10.3605 12.311 11.9338Z" />
</svg>
