<svg width="24" height="24" viewBox="0 0 24 24" fill="black" xmlns="http://www.w3.org/2000/svg">
<path fill-rule="evenodd" clip-rule="evenodd" d="M12.5332 13.3093C10.393 14.953 8.00773 16.2503 5.46449 17.1535L4.99844 17.319C3.97492 17.6826 2.89811 16.9901 2.76013 15.938C2.42045 13.3479 2.42045 10.6521 2.76013 8.06198C2.89811 7.0099 3.97492 6.31742 4.99844 6.68094L5.46449 6.84646C8.00773 7.74973 10.393 9.04699 12.5332 10.6906C12.5708 9.80785 12.6464 8.92899 12.7601 8.06198C12.8981 7.0099 13.9749 6.31742 14.9984 6.68094L15.4645 6.84646C18.037 7.76012 20.4479 9.0769 22.607 10.7475C23.4263 11.3815 23.4263 12.6185 22.607 13.2525C20.4479 14.9231 18.037 16.2399 15.4645 17.1535L14.9984 17.319C13.9749 17.6826 12.8981 16.9901 12.7601 15.938C12.6464 15.071 12.5708 14.1921 12.5332 13.3093ZM11.689 11.9338C11.7323 11.9673 11.7323 12.0327 11.689 12.0661C9.65569 13.6395 7.38517 14.8796 4.96247 15.74L4.49642 15.9055C4.39621 15.9411 4.26449 15.8733 4.2474 15.743C3.9247 13.2824 3.9247 10.7176 4.2474 8.25703C4.26449 8.12673 4.39621 8.05885 4.49642 8.09443L4.96247 8.25996C7.38517 9.12041 9.65569 10.3605 11.689 11.9338ZM21.689 11.9338C21.7323 11.9673 21.7323 12.0327 21.689 12.0661C19.6557 13.6395 17.3852 14.8796 14.9625 15.74L14.4964 15.9055C14.3962 15.9411 14.2645 15.8733 14.2474 15.743C13.9247 13.2824 13.9247 10.7176 14.2474 8.25703C14.2645 8.12673 14.3962 8.05885 14.4964 8.09443L14.9625 8.25996C17.3852 9.12041 19.6557 10.3605 21.689 11.9338Z" />
</svg>
