<svg width="24" height="24" viewBox="0 0 24 24" fill="black" xmlns="http://www.w3.org/2000/svg">
<path fill-rule="evenodd" clip-rule="evenodd" d="M18.535 4.76625C19.265 5.03522 19.75 5.73076 19.75 6.50878V17.4913C19.75 18.2693 19.265 18.9648 18.535 19.2338C17.5442 19.5988 16.4558 19.5988 15.465 19.2338C14.735 18.9648 14.25 18.2693 14.25 17.4913L14.25 6.50878C14.25 5.73076 14.735 5.03522 15.465 4.76625C16.4558 4.40124 17.5442 4.40124 18.535 4.76625ZM18.25 6.50878C18.25 6.3592 18.1568 6.22548 18.0164 6.17377C17.3604 5.93207 16.6396 5.93207 15.9836 6.17377C15.8432 6.22548 15.75 6.3592 15.75 6.50878L15.75 17.4913C15.75 17.6408 15.8432 17.7746 15.9836 17.8263C16.6396 18.068 17.3604 18.068 18.0164 17.8263C18.1568 17.7746 18.25 17.6408 18.25 17.4913V6.50878Z" />
<path fill-rule="evenodd" clip-rule="evenodd" d="M8.53496 4.76625C9.26501 5.03522 9.75 5.73076 9.75 6.50878L9.75 17.4913C9.75 18.2693 9.26501 18.9648 8.53496 19.2338C7.5442 19.5988 6.4558 19.5988 5.46504 19.2338C4.73499 18.9648 4.25 18.2693 4.25 17.4913L4.25 6.50878C4.25 5.73076 4.73499 5.03522 5.46504 4.76625C6.4558 4.40124 7.5442 4.40124 8.53496 4.76625ZM8.25 6.50878C8.25 6.3592 8.15676 6.22548 8.0164 6.17377C7.36035 5.93207 6.63965 5.93207 5.9836 6.17377C5.84324 6.22548 5.75 6.3592 5.75 6.50878L5.75 17.4913C5.75 17.6408 5.84324 17.7746 5.9836 17.8263C6.63965 18.068 7.36035 18.068 8.0164 17.8263C8.15676 17.7746 8.25 17.6408 8.25 17.4913L8.25 6.50878Z" />
</svg>
