<svg width="24" height="24" viewBox="0 0 24 24" fill="black" xmlns="http://www.w3.org/2000/svg">
<path fill-rule="evenodd" clip-rule="evenodd" d="M19.2661 10.4838C20.258 11.2513 20.258 12.7487 19.2661 13.5162C16.2685 15.8356 12.9213 17.6638 9.34979 18.9322L8.69731 19.164C7.44904 19.6073 6.13053 18.7628 5.96154 17.4742C5.48938 13.874 5.48938 10.126 5.96154 6.5258C6.13053 5.23725 7.44904 4.39269 8.69732 4.83603L9.34979 5.06777C12.9213 6.33625 16.2685 8.1644 19.2661 10.4838ZM18.3481 12.3299C18.5639 12.1629 18.5639 11.8371 18.3481 11.6701C15.4763 9.44802 12.2695 7.69654 8.84777 6.48126L8.19529 6.24953C7.87034 6.13412 7.49691 6.35407 7.44881 6.72085C6.99363 10.1916 6.99363 13.8084 7.4488 17.2792C7.49691 17.6459 7.87034 17.8659 8.19529 17.7505L8.84777 17.5188C12.2695 16.3035 15.4763 14.552 18.3481 12.3299Z" />
</svg>
