<svg width="24" height="24" viewBox="0 0 24 24" fill="black" xmlns="http://www.w3.org/2000/svg">
<path fill-rule="evenodd" clip-rule="evenodd" d="M7.25009 6.63098V5.4612C7.25009 4.59495 7.88384 3.85906 8.7405 3.73056L9.96041 3.54757C11.3126 3.34474 12.6875 3.34474 14.0398 3.54757L15.2597 3.73056C16.1163 3.85906 16.7501 4.59495 16.7501 5.4612V6.63098L18.4641 6.76933C19.7765 6.87527 20.847 7.86341 21.0575 9.16313C21.5227 12.0357 21.5227 14.9643 21.0575 17.8369C20.847 19.1366 19.7765 20.1247 18.4641 20.2307L16.5922 20.3818C13.5358 20.6285 10.4644 20.6285 7.40796 20.3818L5.53605 20.2307C4.22366 20.1247 3.15312 19.1366 2.94264 17.8369C2.47745 14.9643 2.47745 12.0357 2.94264 9.16313C3.15312 7.86341 4.22366 6.87527 5.53605 6.76933L7.25009 6.63098ZM10.1829 5.03098C11.3876 4.85027 12.6126 4.85027 13.8173 5.03098L15.0372 5.21396C15.1596 5.23232 15.2501 5.33745 15.2501 5.4612V6.5258C13.0852 6.40233 10.915 6.40233 8.75009 6.5258V5.4612C8.75009 5.33745 8.84063 5.23232 8.96301 5.21396L10.1829 5.03098ZM7.52865 8.11337C10.5048 7.87314 13.4954 7.87314 16.4715 8.11337L18.3434 8.26447C18.9676 8.31485 19.4767 8.78479 19.5768 9.40292C19.6392 9.78785 19.6926 10.1738 19.7373 10.5606C14.8597 12.9624 9.14047 12.9624 4.26287 10.5606C4.30752 10.1738 4.36101 9.78785 4.42335 9.40292C4.52345 8.78479 5.03258 8.31485 5.65673 8.26447L7.52865 8.11337ZM4.12898 12.1567C9.12838 14.4304 14.8718 14.4304 19.8712 12.1567C19.9665 13.9728 19.8684 15.7966 19.5768 17.5971C19.4767 18.2152 18.9676 18.6852 18.3434 18.7355L16.4715 18.8866C13.4954 19.1269 10.5048 19.1269 7.52865 18.8866L5.65673 18.7355C5.03258 18.6852 4.52345 18.2152 4.42335 17.5971C4.13178 15.7966 4.03366 13.9728 4.12898 12.1567Z" />
</svg>
