<svg width="24" height="24" viewBox="0 0 24 24" fill="black" xmlns="http://www.w3.org/2000/svg">
<path fill-rule="evenodd" clip-rule="evenodd" d="M11.4152 2.39514C11.7964 2.278 12.2039 2.278 12.585 2.39514L15.5707 3.3128C17.1284 3.79155 18.6077 4.49541 19.9617 5.40207C21.0149 6.10725 20.5157 7.75 19.2482 7.75H4.75203C3.48458 7.75 2.98538 6.10726 4.03853 5.40207C5.39257 4.49541 6.87186 3.79155 8.4295 3.31281L11.4152 2.39514ZM12.1443 3.82894C12.0504 3.80006 11.9499 3.80006 11.8559 3.82894L8.87018 4.74661C7.68938 5.10953 6.55803 5.61457 5.50081 6.25H18.4994C17.4422 5.61457 16.3109 5.10953 15.1301 4.74661L12.1443 3.82894Z" />
<path d="M4.25012 21C4.25012 20.5858 4.58591 20.25 5.00012 20.25H19.0001C19.4143 20.25 19.7501 20.5858 19.7501 21C19.7501 21.4142 19.4143 21.75 19.0001 21.75H5.00012C4.58591 21.75 4.25012 21.4142 4.25012 21Z" />
<path d="M6.25012 17C6.25012 17.4142 6.58591 17.75 7.00012 17.75C7.41434 17.75 7.75012 17.4142 7.75012 17L7.75012 11C7.75012 10.5858 7.41434 10.25 7.00012 10.25C6.58591 10.25 6.25012 10.5858 6.25012 11L6.25012 17Z" />
<path d="M12.0001 17.75C11.5859 17.75 11.2501 17.4142 11.2501 17L11.2501 11C11.2501 10.5858 11.5859 10.25 12.0001 10.25C12.4143 10.25 12.7501 10.5858 12.7501 11V17C12.7501 17.4142 12.4143 17.75 12.0001 17.75Z" />
<path d="M16.2501 17C16.2501 17.4142 16.5859 17.75 17.0001 17.75C17.4143 17.75 17.7501 17.4142 17.7501 17V11C17.7501 10.5858 17.4143 10.25 17.0001 10.25C16.5859 10.25 16.2501 10.5858 16.2501 11V17Z" />
</svg>
