<svg width="24" height="24" viewBox="0 0 24 24" fill="black" xmlns="http://www.w3.org/2000/svg">
<path fill-rule="evenodd" clip-rule="evenodd" d="M19.1838 4.91231L12.0001 4.74982L4.81639 4.91231C3.48523 4.94242 2.35813 5.90304 2.11744 7.2126C1.53572 10.3777 1.53572 13.6223 2.11744 16.7874C2.35813 18.097 3.48523 19.0576 4.81639 19.0877L12.0001 19.2502L19.1838 19.0877C20.515 19.0576 21.6421 18.097 21.8828 16.7874C22.4645 13.6223 22.4645 10.3777 21.8828 7.2126C21.6421 5.90303 20.515 4.94242 19.1838 4.91231ZM4.85031 6.41192L12.0001 6.2502L19.1499 6.41192C19.7702 6.42595 20.2953 6.87355 20.4075 7.48375C20.5608 8.31774 20.6712 9.15758 20.7389 10H3.26133C3.32899 9.15758 3.43945 8.31774 3.59273 7.48375C3.70488 6.87355 4.23006 6.42595 4.85031 6.41192ZM3.18115 12C3.18115 13.5117 3.31835 15.0233 3.59273 16.5163C3.70488 17.1265 4.23006 17.5741 4.85031 17.5881L12.0001 17.7498L19.1499 17.5881C19.7702 17.5741 20.2953 17.1265 20.4075 16.5163C20.6819 15.0233 20.8191 13.5117 20.8191 12H3.18115Z" />
</svg>
