<svg width="24" height="24" viewBox="0 0 24 24" fill="black" xmlns="http://www.w3.org/2000/svg">
<path fill-rule="evenodd" clip-rule="evenodd" d="M11.25 5.78832C7.59833 6.16361 4.75 9.24917 4.75 13C4.75 17.0041 7.99594 20.25 12 20.25C15.7508 20.25 18.8364 17.4017 19.2117 13.75H12C11.5858 13.75 11.25 13.4142 11.25 13V5.78832ZM3.25 13C3.25 8.1675 7.16751 4.24999 12 4.24999C12.4142 4.24999 12.75 4.58578 12.75 4.99999V12.25H20C20.4142 12.25 20.75 12.5858 20.75 13C20.75 17.8325 16.8325 21.75 12 21.75C7.16751 21.75 3.25 17.8325 3.25 13Z" />
<path fill-rule="evenodd" clip-rule="evenodd" d="M15.5 4.67364V9.49999H20.3264C19.7633 7.11559 17.8844 5.23667 15.5 4.67364ZM14.998 3.06164C18.6183 3.51217 21.4878 6.38166 21.9384 10.002C22.0066 10.55 21.5523 11 21 11H14.5C14.2239 11 14 10.7761 14 10.5V3.99999C14 3.44771 14.45 2.99344 14.998 3.06164Z" />
</svg>
