<svg width="24" height="24" viewBox="0 0 24 24" fill="black" xmlns="http://www.w3.org/2000/svg">
<path d="M8.8901 15.4027C8.3419 15.4697 7.95185 15.9685 8.01889 16.5167C8.08593 17.0649 8.58469 17.4549 9.13289 17.3879C9.68109 17.3209 10.0711 16.8221 10.0041 16.2739C9.93706 15.7257 9.4383 15.3357 8.8901 15.4027Z" />
<path d="M5.54813 12.7891C5.48108 12.2409 5.87114 11.7421 6.41934 11.6751C6.96754 11.608 7.46629 11.9981 7.53334 12.5463C7.60038 13.0945 7.21032 13.5932 6.66212 13.6603C6.11392 13.7273 5.61517 13.3373 5.54813 12.7891Z" />
<path d="M7.91897 7.46187C7.37077 7.52891 6.98072 8.02766 7.04776 8.57586C7.1148 9.12406 7.61356 9.51412 8.16176 9.44708C8.70996 9.38003 9.10001 8.88128 9.03297 8.33308C8.96593 7.78488 8.46717 7.39482 7.91897 7.46187Z" />
<path d="M15.6973 9.28109C15.6303 8.73289 16.0203 8.23414 16.5685 8.1671C17.1167 8.10005 17.6155 8.49011 17.6825 9.03831C17.7496 9.58651 17.3595 10.0853 16.8113 10.1523C16.2631 10.2193 15.7644 9.82929 15.6973 9.28109Z" />
<path d="M11.9926 10.8786C11.4444 10.9457 11.0544 11.4444 11.1214 11.9926C11.1885 12.5408 11.6872 12.9309 12.2354 12.8638C12.7836 12.7968 13.1737 12.298 13.1066 11.7498C13.0396 11.2016 12.5408 10.8116 11.9926 10.8786Z" />
<path d="M11.3931 7.03698C11.3261 6.48878 11.7161 5.99003 12.2643 5.92299C12.8125 5.85594 13.3113 6.246 13.3783 6.7942C13.4453 7.3424 13.0553 7.84115 12.5071 7.9082C11.9589 7.97524 11.4601 7.58518 11.3931 7.03698Z" />
<path fill-rule="evenodd" clip-rule="evenodd" d="M2.25292 11.7637C2.38342 6.3805 6.85315 2.12235 12.2363 2.25284C17.6195 2.38334 21.8777 6.85307 21.7472 12.2363C21.7389 12.5772 21.6243 12.8887 21.4132 13.1451C21.2113 13.3904 20.9499 13.5512 20.6919 13.6589C20.1899 13.8685 19.5606 13.9342 18.9379 13.9384C16.2493 13.9566 13.9139 16.2692 13.7613 18.9967C13.7257 19.633 13.6172 20.2803 13.3433 20.7889C13.2015 21.0522 13.0023 21.3027 12.7234 21.4841C12.4378 21.6698 12.1102 21.7555 11.7638 21.7471C6.38058 21.6166 2.12243 17.1469 2.25292 11.7637ZM12.2 3.7524C7.64498 3.64198 3.8629 7.24504 3.75248 11.8C3.64206 16.3551 7.24511 20.1371 11.8001 20.2476C11.8682 20.2492 11.8934 20.2345 11.9058 20.2265C11.9248 20.2142 11.9688 20.1776 12.0226 20.0777C12.14 19.8598 12.2321 19.4757 12.2636 18.9129C12.4581 15.438 15.4045 12.4623 18.9278 12.4384C19.4899 12.4346 19.8843 12.3706 20.114 12.2747C20.1952 12.2408 20.2331 12.2122 20.2477 12.1991C20.3576 7.64448 16.7547 3.86282 12.2 3.7524Z" />
</svg>
