<svg width="21" height="25" viewBox="0 0 21 25" fill="none" xmlns="http://www.w3.org/2000/svg">
<path fill="none" d="M7.30994 7.51354V3.8138C7.30899 3.39575 7.39087 2.98165 7.55085 2.59542C7.71082 2.20919 7.94573 1.85847 8.242 1.56353C8.53827 1.26858 8.89003 1.03525 9.27698 0.877009C9.66392 0.718767 10.0784 0.638749 10.4964 0.641575V0.641575C11.3378 0.641575 12.1446 0.975791 12.7395 1.5707C13.3344 2.16561 13.6687 2.97247 13.6687 3.8138V7.51354" stroke="white" stroke-width="1.28315" stroke-linecap="round" stroke-linejoin="round"/>
<path fill="none" d="M16.9122 24.3584H4.08068C3.6313 24.3578 3.1869 24.2644 2.77528 24.084C2.36367 23.9037 1.99371 23.6404 1.68857 23.3105C1.38343 22.9806 1.14968 22.5912 1.00196 22.1668C0.854227 21.7424 0.795702 21.2921 0.830043 20.844L1.96349 6.25891C1.98499 6.00175 2.10257 5.76212 2.2928 5.58775C2.48302 5.41337 2.73195 5.31704 2.99001 5.31794H18.0028C18.2601 5.31718 18.5082 5.41375 18.6973 5.58827C18.8864 5.7628 19.0024 6.00237 19.0222 6.25891L20.1414 20.844C20.1767 21.2905 20.1195 21.7395 19.9735 22.1629C19.8275 22.5864 19.5957 22.9751 19.2926 23.3049C18.9896 23.6347 18.6218 23.8985 18.2122 24.0798C17.8026 24.261 17.3601 24.3559 16.9122 24.3584V24.3584Z" stroke="white" stroke-width="1.28315" stroke-linecap="round" stroke-linejoin="round"/>
</svg>
