<svg width="24" height="24" viewBox="0 0 24 24" fill="black" xmlns="http://www.w3.org/2000/svg">
<path fill-rule="evenodd" clip-rule="evenodd" d="M12.7499 2C12.7499 1.58579 12.4141 1.25 11.9999 1.25C11.5857 1.25 11.2499 1.58579 11.2499 2V2.27842C6.26631 2.65752 2.33007 6.78303 2.25109 11.8451C2.24395 12.3024 2.57409 12.6894 3.0173 12.7632C5.74354 13.2176 8.49563 13.4637 11.2499 13.5015V19C11.2499 19.4142 10.9141 19.75 10.4999 19.75C10.0857 19.75 9.74988 19.4142 9.74988 19V18.5C9.74988 18.0858 9.41409 17.75 8.99988 17.75C8.58566 17.75 8.24988 18.0858 8.24988 18.5V19C8.24988 20.2426 9.25724 21.25 10.4999 21.25C11.7425 21.25 12.7499 20.2426 12.7499 19V13.5015C15.5041 13.4637 18.2562 13.2176 20.9825 12.7632C21.4257 12.6894 21.7558 12.3025 21.7487 11.8451C21.6697 6.78303 17.7334 2.65751 12.7499 2.27842V2ZM20.2259 11.3661C19.9023 7.10606 16.343 3.75 11.9999 3.75C7.65681 3.75 4.09746 7.10606 3.77386 11.3661C9.22461 12.2202 14.7752 12.2202 20.2259 11.3661Z" />
</svg>
