<svg width="24" height="24" viewBox="0 0 24 24" fill="black" xmlns="http://www.w3.org/2000/svg">
<path d="M15.4999 12C15.4999 11.1716 16.1715 10.5 16.9999 10.5C17.8284 10.5 18.4999 11.1716 18.4999 12C18.4999 12.8284 17.8284 13.5 16.9999 13.5C16.1715 13.5 15.4999 12.8284 15.4999 12Z" />
<path fill-rule="evenodd" clip-rule="evenodd" d="M20.4413 6.67402C19.7835 5.12836 18.3301 4.01723 16.6006 3.83523L15.9487 3.76664C12.6564 3.42018 9.33569 3.44303 6.04844 3.83475L5.6165 3.88622C3.94771 4.08508 2.62546 5.38889 2.40318 7.05473C1.96522 10.337 1.96522 13.663 2.40318 16.9453C2.62546 18.6111 3.94771 19.9149 5.61651 20.1138L6.04845 20.1653C9.33569 20.557 12.6564 20.5798 15.9487 20.2334L16.6006 20.1648C18.3301 19.9828 19.7835 18.8717 20.4413 17.326C21.4805 17.0166 22.2737 16.1156 22.4039 15.0024C22.6372 13.0076 22.6372 10.9924 22.4039 8.99764C22.2737 7.88442 21.4805 6.98344 20.4413 6.67402ZM15.7918 5.2584C12.6107 4.92365 9.40212 4.94573 6.22593 5.32421L5.79399 5.37568C4.80518 5.49351 4.02171 6.26606 3.89 7.25312C3.46961 10.4038 3.46961 13.5963 3.89 16.7469C4.02171 17.734 4.80518 18.5065 5.794 18.6243L6.22594 18.6758C9.40212 19.0543 12.6107 19.0764 15.7918 18.7416L16.4436 18.673C17.2942 18.5835 18.0468 18.1643 18.5683 17.542C17.0601 17.6299 15.5319 17.5906 14.0417 17.4241C12.7723 17.2822 11.7457 16.2826 11.596 15.0024C11.3627 13.0076 11.3627 10.9924 11.596 8.99764C11.7457 7.71738 12.7723 6.71784 14.0417 6.57597C15.5319 6.40942 17.0601 6.37012 18.5683 6.45806C18.0467 5.83574 17.2942 5.4165 16.4436 5.327L15.7918 5.2584ZM19.2773 8.01471C19.2779 8.01855 19.2785 8.02239 19.2791 8.02623L19.2852 8.06511L19.4838 8.03426C19.5866 8.04444 19.6892 8.05524 19.7916 8.06669C20.379 8.13234 20.8468 8.59648 20.9141 9.17189C21.1338 11.0509 21.1338 12.9491 20.9141 14.8281C20.8468 15.4035 20.379 15.8677 19.7916 15.9333C19.6892 15.9448 19.5866 15.9556 19.4838 15.9658L19.2852 15.9349L19.2791 15.9738C19.2785 15.9776 19.2779 15.9815 19.2773 15.9853C17.5987 16.1372 15.8771 16.1199 14.2083 15.9333C13.6209 15.8677 13.1531 15.4035 13.0858 14.8281C12.8661 12.9491 12.8661 11.0509 13.0858 9.17189C13.1531 8.59648 13.6209 8.13234 14.2083 8.06669C15.8771 7.88017 17.5987 7.86285 19.2773 8.01471Z" />
</svg>
