<svg width="24" height="24" viewBox="0 0 24 24" fill="black" xmlns="http://www.w3.org/2000/svg">
<path d="M11.5343 4.13112C11.6318 3.98765 11.5241 3.78849 11.3518 3.80875C5.95669 4.4432 2.47334 10.1043 4.59182 15.3042L5.52416 17.5927C5.56587 17.6951 5.53538 17.8127 5.44918 17.8819L3.47769 19.4652C3.22954 19.6645 3.13419 19.9987 3.23982 20.2989C3.34545 20.5991 3.62905 20.8 3.94731 20.8H11.7676C16.5662 20.8 20.4859 16.9605 20.7371 12.2196C20.7466 12.0415 20.5305 11.9486 20.3949 12.0644C20.0777 12.3352 19.7318 12.5736 19.3627 12.7743C19.2471 12.8372 19.166 12.9498 19.144 13.0795C18.5442 16.611 15.4699 19.3 11.7676 19.3H6.07897L6.38842 19.0515C6.99184 18.5669 7.2053 17.7435 6.9133 17.0268L5.98096 14.7383C4.35818 10.7551 6.7381 6.44236 10.6612 5.45784C10.7935 5.42466 10.9026 5.33023 10.9548 5.20432C11.1118 4.82545 11.3065 4.46615 11.5343 4.13112Z" />
<path fill-rule="evenodd" clip-rule="evenodd" d="M12.8319 10.1074C12.308 9.37179 11.9999 8.47187 11.9999 7.5C11.9999 5.01472 14.0147 3 16.4999 3C17.4718 3 18.3717 3.30809 19.1073 3.83194C19.5172 4.12383 19.8761 4.48271 20.168 4.8926C20.6918 5.62821 20.9999 6.52813 20.9999 7.5C20.9999 9.98528 18.9852 12 16.4999 12C15.5281 12 14.6282 11.6919 13.8925 11.1681C13.4826 10.8762 13.1238 10.5173 12.8319 10.1074ZM14.976 10.0846C15.4226 10.3486 15.9436 10.5 16.4999 10.5C18.1568 10.5 19.4999 9.15685 19.4999 7.5C19.4999 6.94364 19.3485 6.42266 19.0846 5.97602L14.976 10.0846ZM18.0239 4.91536L13.9153 9.02398C13.6514 8.57734 13.4999 8.05636 13.4999 7.5C13.4999 5.84315 14.8431 4.5 16.4999 4.5C17.0563 4.5 17.5773 4.65145 18.0239 4.91536Z" />
</svg>
