<svg width="24" height="24" viewBox="0 0 24 24" fill="black" xmlns="http://www.w3.org/2000/svg">
<path d="M9.99994 8.99999C9.99994 7.89542 10.8954 6.99999 11.9999 6.99999C13.1045 6.99999 13.9999 7.89542 13.9999 8.99999C13.9999 10.1046 13.1045 11 11.9999 11C10.8954 11 9.99994 10.1046 9.99994 8.99999Z" />
<path d="M10.9999 12.5C9.34308 12.5 7.99994 13.8431 7.99994 15.5C7.99994 16.0523 8.44765 16.5 8.99994 16.5H14.9999C15.5522 16.5 15.9999 16.0523 15.9999 15.5C15.9999 13.8431 14.6568 12.5 12.9999 12.5H10.9999Z" />
<path fill-rule="evenodd" clip-rule="evenodd" d="M7.54347 2.88267C10.4993 2.45793 13.5006 2.45793 16.4564 2.88267C17.9219 3.09326 19.051 4.28265 19.1851 5.75711L19.3121 7.15284C19.6055 10.3776 19.6055 13.6224 19.3121 16.8471L19.1851 18.2429C19.051 19.7173 17.9219 20.9067 16.4564 21.1173C13.5006 21.5421 10.4993 21.5421 7.54347 21.1173C6.07798 20.9067 4.94888 19.7173 4.81475 18.2429L4.68779 16.8471C4.39444 13.6224 4.39444 10.3776 4.68779 7.15284L4.81475 5.75711C4.94888 4.28265 6.07798 3.09326 7.54347 2.88267ZM16.2431 4.36742C13.4288 3.96302 10.5711 3.96302 7.75682 4.36742C6.97903 4.47919 6.37977 5.11045 6.30859 5.893L6.18162 7.28873C5.89649 10.4231 5.89649 13.5769 6.18162 16.7113L6.30859 18.107C6.37977 18.8895 6.97903 19.5208 7.75682 19.6326C10.5711 20.037 13.4288 20.037 16.2431 19.6326C17.0209 19.5208 17.6201 18.8895 17.6913 18.107L17.8183 16.7113C18.1034 13.5769 18.1034 10.4231 17.8183 7.28873L17.6913 5.893C17.6201 5.11045 17.0209 4.47919 16.2431 4.36742Z" />
</svg>
