<svg width="24" height="24" viewBox="0 0 24 24" fill="black" xmlns="http://www.w3.org/2000/svg">
<path fill-rule="evenodd" clip-rule="evenodd" d="M13.2977 18.75C13.4639 18.75 13.6174 18.6608 13.6997 18.5164L17.0456 12.6431C17.4892 11.8646 17.6753 10.9658 17.5774 10.0751L17.2243 6.86145C17.1615 6.28967 16.7126 5.83676 16.1414 5.76881L14.0243 5.51697C12.6268 5.35072 11.2097 5.49483 9.87426 5.93903C9.21472 6.1584 8.68645 6.65899 8.43194 7.30578L6.72785 11.6363C6.68619 11.7422 6.6574 11.8527 6.64209 11.9655C6.51285 12.9176 7.34632 13.7207 8.29299 13.5563L11.7088 12.963C12.7878 12.7756 13.7197 13.7278 13.5091 14.8025L12.8437 18.1984C12.7877 18.4842 13.0065 18.75 13.2977 18.75ZM15.003 19.2589C14.6539 19.8716 14.0029 20.25 13.2977 20.25C12.0623 20.25 11.1342 19.1223 11.3717 17.91L12.0371 14.5141C12.04 14.4995 12.0384 14.4907 12.0364 14.4843C12.034 14.4764 12.0289 14.4672 12.0205 14.4587C12.0122 14.4501 12.0031 14.4449 11.9953 14.4422C11.9889 14.4401 11.9801 14.4384 11.9655 14.4409L8.54967 15.0342C6.60349 15.3722 4.89002 13.7211 5.15572 11.7637C5.18719 11.5319 5.24638 11.3048 5.33203 11.0871L7.03612 6.75652C7.4534 5.69609 8.31951 4.87535 9.40084 4.51569C10.9457 4.00186 12.5849 3.83516 14.2015 4.02747L16.3186 4.27931C17.5828 4.4297 18.5763 5.4321 18.7153 6.6976L19.0685 9.91128C19.2009 11.1163 18.9491 12.3323 18.349 13.3856L15.003 19.2589Z" />
</svg>
