<svg width="24" height="24" viewBox="0 0 24 24" fill="black" xmlns="http://www.w3.org/2000/svg">
<path fill-rule="evenodd" clip-rule="evenodd" d="M19.8066 5.37075C20.4739 5.85237 20.9451 6.59097 21.0742 7.44948C21.1195 7.75033 21.1602 8.05169 21.1964 8.35345C21.4766 10.9564 21.4641 13.9582 21.0742 16.5505C20.8585 17.9849 19.6879 19.0845 18.2428 19.2102L16.7326 19.3414C13.5835 19.6152 10.4167 19.6152 7.26762 19.3414L5.75739 19.2102C4.31232 19.0845 3.14165 17.9849 2.92595 16.5505C2.53613 13.9582 2.52364 10.9562 2.80379 8.35329C2.84 8.05158 2.88072 7.75028 2.92595 7.44948C3.05487 6.59216 3.52495 5.85441 4.19086 5.37275L4.19009 5.36602L4.23735 5.33977C4.40986 5.21969 4.59494 5.11656 4.79017 5.03264L9.20612 2.57934C10.9427 1.61455 13.0544 1.61454 14.791 2.57934L19.1968 5.02698C19.4014 5.1138 19.5949 5.2217 19.7747 5.34805L19.8071 5.36606L19.8066 5.37075ZM18.9656 6.61451L14.0625 3.89057C12.779 3.17747 11.2182 3.17747 9.93458 3.89058L5.04292 6.60817C4.70944 6.85978 4.47484 7.23654 4.40928 7.67254C4.39758 7.75031 4.3862 7.82811 4.37514 7.90595L9.93608 10.9954C11.2197 11.7085 12.7805 11.7085 14.064 10.9954L19.6251 7.90592C19.614 7.82809 19.6026 7.7503 19.5909 7.67254C19.5259 7.24019 19.2947 6.8661 18.9656 6.61451ZM19.7056 15.4805C19.944 13.5016 19.9783 11.5042 19.8086 9.5199L14.7925 12.3066C13.0559 13.2714 10.9442 13.2714 9.20761 12.3066L4.19159 9.51993C4.02187 11.5042 4.05621 13.5016 4.29461 15.4805C4.32867 15.7633 4.36689 16.0456 4.40927 16.3275C4.43327 16.487 4.47991 16.6387 4.54575 16.7791C4.78885 17.2978 5.29373 17.6642 5.88729 17.7158L7.39753 17.8471C10.4601 18.1133 13.5401 18.1133 16.6027 17.8471L18.1129 17.7158C18.5844 17.6748 18.9999 17.4352 19.2727 17.0785C19.4364 16.8645 19.5487 16.6082 19.5909 16.3274C19.6333 16.0456 19.6715 15.7632 19.7056 15.4805Z" />
</svg>
