<svg width="24" height="24" viewBox="0 0 24 24" fill="black" xmlns="http://www.w3.org/2000/svg">
<path d="M10.994 10.8253C11.0998 10.7195 11.1111 10.5522 11.0237 10.4308C10.6821 9.9565 10.3745 9.45578 10.1047 8.93218L10.7742 8.43602C11.5734 7.84378 11.7188 6.70539 11.0943 5.93122L9.29923 3.70617C8.71523 2.98228 7.667 2.84167 6.91288 3.38608L5.13959 4.66624C3.69161 5.71155 3.18168 7.63296 3.92078 9.25871L4.47528 10.4784L4.47645 10.481C5.13013 11.9047 5.95525 13.2302 6.92618 14.4318C7.03687 14.5688 7.24157 14.5777 7.36611 14.4532L8.00686 13.8124C8.11614 13.7032 8.12429 13.5289 8.02789 13.4081C7.16325 12.3247 6.42673 11.1335 5.84023 9.85638L5.83963 9.85508L5.28629 8.63792C4.84283 7.66247 5.14879 6.50963 6.01758 5.88244L7.79087 4.60228C7.8986 4.52451 8.04835 4.54459 8.13178 4.64801L9.92682 6.87305C10.016 6.98365 9.99526 7.14628 9.88109 7.23088L8.71272 8.09674C8.42896 8.30702 8.33037 8.68678 8.47598 9.00854C8.86696 9.87248 9.34656 10.6868 9.90338 11.4402C10.0106 11.5852 10.2212 11.5981 10.3487 11.4706L10.994 10.8253Z" />
<path fill-rule="evenodd" clip-rule="evenodd" d="M19.997 3.94358L4.03028 19.9103C4.02131 19.9193 4.01217 19.928 4.00287 19.9364L3.96962 19.9697C3.67673 20.2626 3.67673 20.7374 3.96962 21.0303C4.26252 21.3232 4.73739 21.3232 5.03028 21.0303L9.23778 16.8228C10.699 18.0874 12.3598 19.129 14.1699 19.8973L14.9276 20.2349C16.5487 20.9572 18.454 20.4442 19.4934 19.0058L20.7678 17.242C21.3126 16.4879 21.1722 15.4393 20.4481 14.8551L18.2234 13.0603C17.4492 12.4357 16.3108 12.5812 15.7185 13.3804L15.2224 14.0499C14.5294 13.6927 13.8765 13.2696 13.2719 12.7887L21.0303 5.03033C21.3232 4.73744 21.3232 4.26256 21.0303 3.96967C20.7464 3.68575 20.2914 3.67705 19.997 3.94358ZM15.146 15.6786C14.0837 15.1978 13.0963 14.583 12.2051 13.8555L10.3014 15.7592C11.6271 16.8919 13.1285 17.8264 14.7618 18.519L14.7743 18.5243L15.5381 18.8648C16.5107 19.2981 17.6539 18.9904 18.2776 18.1273L19.5519 16.3635C19.6298 16.2558 19.6097 16.106 19.5063 16.0225L17.2815 14.2277C17.1709 14.1385 17.0083 14.1593 16.9237 14.2735L16.0578 15.4418C15.8475 15.7256 15.4678 15.8242 15.146 15.6786Z" />
</svg>
