<svg width="24" height="24" viewBox="0 0 24 24" fill="black" xmlns="http://www.w3.org/2000/svg">
<path fill-rule="evenodd" clip-rule="evenodd" d="M6.66426 4.41422C6.66426 4 7.00005 3.66422 7.41426 3.66422H10.2427C10.6569 3.66422 10.9927 4 10.9927 4.41422C10.9927 4.82843 10.6569 5.16422 10.2427 5.16422H9.22492L11.8233 7.76256C11.9209 7.8602 12.0792 7.8602 12.1768 7.76256L16.0555 3.88389C16.3484 3.59099 16.8233 3.59099 17.1162 3.88389C17.4091 4.17678 17.4091 4.65165 17.1162 4.94455L13.2375 8.82323C12.5541 9.50664 11.446 9.50664 10.7626 8.82322L8.16426 6.22488V7.24264C8.16426 7.65686 7.82847 7.99264 7.41426 7.99264C7.00005 7.99264 6.66426 7.65686 6.66426 7.24264V4.41422Z" />
<path fill-rule="evenodd" clip-rule="evenodd" d="M17.9719 13.5721C13.9561 12.084 9.51923 12.145 5.53797 13.7552L5.5254 13.7603L4.74456 14.0597C3.75039 14.441 3.15964 15.467 3.32897 16.5183L3.67501 18.6665C3.69615 18.7978 3.81627 18.8895 3.94842 18.8754L6.79066 18.5713C6.93195 18.5562 7.03225 18.4265 7.01135 18.286L6.79744 16.8476C6.74549 16.4982 6.94429 16.16 7.27478 16.0354C10.3113 14.891 13.6711 14.891 16.7076 16.0354C17.0381 16.16 17.2369 16.4982 17.185 16.8476L16.9711 18.286C16.9502 18.4265 17.0505 18.5562 17.1918 18.5713L20.0344 18.8754C20.1665 18.8895 20.2866 18.7978 20.3078 18.6667L20.6565 16.5076C20.8273 15.4497 20.2285 14.4182 19.2252 14.042L17.9732 13.5726L17.9719 13.5721ZM4.98191 12.3621C9.30913 10.6138 14.1305 10.5485 18.4946 12.1662L18.4972 12.1671L19.7518 12.6375C21.424 13.2645 22.422 14.9837 22.1373 16.7467L21.7886 18.9058C21.6403 19.824 20.7997 20.4658 19.8749 20.3669L17.0322 20.0628C16.0432 19.957 15.3411 19.0492 15.4874 18.0653L15.61 17.2411C13.2586 16.4891 10.7238 16.4891 8.37246 17.2411L8.49504 18.0653C8.64135 19.0492 7.93924 19.957 6.9502 20.0628L4.10796 20.3669C3.18286 20.4658 2.34206 19.8236 2.1941 18.9051L1.84806 16.7568C1.56584 15.0047 2.55042 13.2947 4.20738 12.6592L4.98191 12.3621Z" />
</svg>
