<svg width="24" height="24" viewBox="0 0 24 24" fill="black" xmlns="http://www.w3.org/2000/svg">
<path fill-rule="evenodd" clip-rule="evenodd" d="M4.47645 10.481C6.4185 14.7107 9.87386 18.0737 14.1699 19.8973L14.9276 20.2349C16.5487 20.9572 18.454 20.4442 19.4934 19.0058L20.7678 17.242C21.3126 16.4879 21.1722 15.4393 20.4481 14.8551L18.2234 13.0603C17.4492 12.4357 16.3108 12.5812 15.7185 13.3804L15.2224 14.0499C13.028 12.919 11.2356 11.1266 10.1047 8.93218L10.7742 8.43602C11.5734 7.84378 11.7188 6.70539 11.0943 5.93122L9.29923 3.70617C8.71523 2.98228 7.667 2.84167 6.91288 3.38608L5.13959 4.66624C3.69161 5.71155 3.18168 7.63296 3.92078 9.25871L4.47528 10.4784L4.47645 10.481ZM14.7618 18.519C10.808 16.8424 7.62754 13.7483 5.84023 9.85638L5.83963 9.85508L5.28629 8.63792C4.84283 7.66247 5.14879 6.50963 6.01758 5.88244L7.79087 4.60228C7.8986 4.52451 8.04835 4.54459 8.13178 4.64801L9.92682 6.87305C10.016 6.98365 9.99526 7.14628 9.88109 7.23088L8.71272 8.09674C8.42896 8.30702 8.33037 8.68678 8.47598 9.00854C9.81391 11.9649 12.1896 14.3407 15.146 15.6786C15.4678 15.8242 15.8475 15.7256 16.0578 15.4418L16.9237 14.2735C17.0083 14.1593 17.1709 14.1385 17.2815 14.2277L19.5063 16.0225C19.6097 16.106 19.6298 16.2558 19.5519 16.3635L18.2776 18.1273C17.6539 18.9904 16.5107 19.2981 15.5381 18.8648L14.7743 18.5243L14.7618 18.519Z" />
<path d="M13.75 9C13.75 9.19891 13.829 9.38968 13.9696 9.53033C14.1103 9.67098 14.301 9.75 14.5 9.75H18.3284C18.7426 9.75 19.0784 9.41421 19.0784 9C19.0784 8.58579 18.7426 8.25 18.3284 8.25H16.3106L19.4696 5.09099C19.7625 4.7981 19.7625 4.32322 19.4696 4.03033C19.1767 3.73744 18.7019 3.73744 18.409 4.03033L15.25 7.18934V5.17157C15.25 4.75736 14.9142 4.42157 14.5 4.42157C14.0857 4.42157 13.75 4.75736 13.75 5.17157V9Z" />
</svg>
