<svg width="24" height="24" viewBox="0 0 24 24" fill="black" xmlns="http://www.w3.org/2000/svg">
<path fill-rule="evenodd" clip-rule="evenodd" d="M11.2482 15.5L10.5772 13.399H8.22323L7.58523 15.5H6.18823L8.56423 8.08603H10.2912L12.7002 15.5H11.2482ZM9.01523 10.55L8.44323 12.376H10.3462L9.76323 10.55C9.64749 10.185 9.54617 9.78396 9.45342 9.41686C9.43157 9.3304 9.4102 9.24581 9.38923 9.16403H9.36723C9.32954 9.31102 9.29185 9.46834 9.25328 9.62936C9.17927 9.93828 9.102 10.2608 9.01523 10.55Z" />
<path fill-rule="evenodd" clip-rule="evenodd" d="M17.6837 12.629C17.6837 12.882 17.6617 13.08 17.6397 13.201H14.0537C14.0867 14.169 14.8457 14.587 15.7037 14.587C16.3307 14.587 16.7817 14.499 17.1887 14.345L17.3867 15.28C16.9247 15.467 16.2867 15.621 15.5167 15.621C13.7787 15.621 12.7557 14.543 12.7557 12.904C12.7557 11.419 13.6577 10.022 15.3737 10.022C17.1227 10.022 17.6837 11.452 17.6837 12.629ZM15.2967 10.946C14.4607 10.946 14.1087 11.705 14.0537 12.255H16.4077C16.4187 11.76 16.1987 10.946 15.2967 10.946Z" />
<path fill-rule="evenodd" clip-rule="evenodd" d="M17.2582 2.83306C13.7916 2.44562 10.2083 2.44562 6.74171 2.83306C4.72965 3.05794 3.10532 4.64295 2.86876 6.66548C2.45423 10.2098 2.45423 13.7903 2.86876 17.3346C3.10532 19.3571 4.72965 20.9422 6.74171 21.167C10.2083 21.5545 13.7916 21.5545 17.2582 21.167C19.2702 20.9422 20.8946 19.3571 21.1311 17.3346C21.5457 13.7903 21.5457 10.2098 21.1311 6.66548C20.8946 4.64295 19.2703 3.05794 17.2582 2.83306ZM6.90832 4.32378C10.2642 3.94871 13.7357 3.94871 17.0916 4.32378C18.4217 4.47244 19.4872 5.52205 19.6413 6.83973C20.0423 10.2683 20.0423 13.7318 19.6413 17.1604C19.4872 18.478 18.4217 19.5277 17.0916 19.6763C13.7357 20.0514 10.2642 20.0514 6.90832 19.6763C5.57821 19.5277 4.51272 18.478 4.35861 17.1604C3.95761 13.7318 3.95761 10.2683 4.35861 6.83973C4.51272 5.52205 5.57821 4.47244 6.90832 4.32378Z" />
</svg>
