<svg width="24" height="24" viewBox="0 0 24 24" fill="black" xmlns="http://www.w3.org/2000/svg">
<path d="M15.9324 10.143V15.5H14.5684V10.143H15.9324Z" />
<path d="M14.4914 8.64703C14.4914 8.22903 14.7994 7.91003 15.2504 7.91003C15.7124 7.91003 15.9984 8.22903 16.0094 8.64703C16.0094 9.05403 15.7124 9.37303 15.2394 9.37303C14.7884 9.37303 14.4914 9.05403 14.4914 8.64703Z" />
<path fill-rule="evenodd" clip-rule="evenodd" d="M12.634 15.5L11.963 13.399H9.60897L8.97097 15.5H7.57397L9.94997 8.08603H11.677L14.086 15.5H12.634ZM10.401 10.55L9.82897 12.376H11.732L11.149 10.55C11.0332 10.185 10.9319 9.78397 10.8392 9.41687C10.8173 9.3304 10.7959 9.24582 10.775 9.16403H10.753C10.7153 9.31097 10.6776 9.46822 10.6391 9.62917C10.5651 9.93809 10.4877 10.2608 10.401 10.55Z" />
<path fill-rule="evenodd" clip-rule="evenodd" d="M17.2582 2.83306C13.7916 2.44562 10.2083 2.44562 6.74171 2.83306C4.72965 3.05794 3.10532 4.64295 2.86876 6.66548C2.45423 10.2098 2.45423 13.7903 2.86876 17.3346C3.10532 19.3571 4.72965 20.9422 6.74171 21.167C10.2083 21.5545 13.7916 21.5545 17.2582 21.167C19.2702 20.9422 20.8946 19.3571 21.1311 17.3346C21.5457 13.7903 21.5457 10.2098 21.1311 6.66548C20.8946 4.64295 19.2703 3.05794 17.2582 2.83306ZM6.90832 4.32378C10.2642 3.94871 13.7357 3.94871 17.0916 4.32378C18.4217 4.47244 19.4872 5.52205 19.6413 6.83973C20.0423 10.2683 20.0423 13.7318 19.6413 17.1604C19.4872 18.478 18.4217 19.5277 17.0916 19.6763C13.7357 20.0514 10.2642 20.0514 6.90832 19.6763C5.57821 19.5277 4.51272 18.478 4.35861 17.1604C3.95761 13.7318 3.95761 10.2683 4.35861 6.83973C4.51272 5.52205 5.57821 4.47244 6.90832 4.32378Z" />
</svg>
