<svg width="24" height="24" viewBox="0 0 24 24" fill="black" xmlns="http://www.w3.org/2000/svg">
<path fill-rule="evenodd" clip-rule="evenodd" d="M16.0758 10.726V7.69003H17.4288V13.993C17.4288 14.543 17.4508 15.137 17.4728 15.5H16.2628L16.2078 14.653H16.1858C15.8668 15.247 15.2178 15.621 14.4368 15.621C13.1608 15.621 12.1488 14.532 12.1488 12.882C12.1378 11.089 13.2598 10.022 14.5468 10.022C15.2838 10.022 15.8118 10.33 16.0538 10.726H16.0758ZM16.0318 13.575C16.0648 13.454 16.0758 13.322 16.0758 13.179V12.376C16.0758 12.266 16.0648 12.134 16.0428 12.024C15.9218 11.496 15.4928 11.067 14.8768 11.067C14.0078 11.067 13.5238 11.837 13.5238 12.838C13.5238 13.817 14.0078 14.532 14.8658 14.532C15.4158 14.532 15.8998 14.158 16.0318 13.575Z" />
<path d="M9.90345 11.705L12.1585 15.5H10.5965L9.79345 14.026C9.47445 13.454 9.26545 13.058 9.05645 12.629H9.02345C8.84745 13.058 8.64945 13.454 8.35245 14.026L7.61545 15.5H6.06445L8.26445 11.749L6.15245 8.08603H7.70345L8.50645 9.61503C8.74845 10.077 8.92445 10.44 9.12245 10.858H9.14445C9.34245 10.396 9.49645 10.066 9.72745 9.61503L10.5195 8.08603H12.0705L9.90345 11.705Z" />
<path fill-rule="evenodd" clip-rule="evenodd" d="M17.2582 2.83306C13.7916 2.44562 10.2083 2.44562 6.74171 2.83306C4.72965 3.05794 3.10532 4.64295 2.86876 6.66548C2.45423 10.2098 2.45423 13.7903 2.86876 17.3346C3.10532 19.3571 4.72965 20.9422 6.74171 21.167C10.2083 21.5545 13.7916 21.5545 17.2582 21.167C19.2702 20.9422 20.8946 19.3571 21.1311 17.3346C21.5457 13.7903 21.5457 10.2098 21.1311 6.66548C20.8946 4.64295 19.2703 3.05794 17.2582 2.83306ZM6.90832 4.32378C10.2642 3.94871 13.7357 3.94871 17.0916 4.32378C18.4217 4.47244 19.4872 5.52205 19.6413 6.83973C20.0423 10.2683 20.0423 13.7318 19.6413 17.1604C19.4872 18.478 18.4217 19.5277 17.0916 19.6763C13.7357 20.0514 10.2642 20.0514 6.90832 19.6763C5.57821 19.5277 4.51272 18.478 4.35861 17.1604C3.95761 13.7318 3.95761 10.2683 4.35861 6.83973C4.51272 5.52205 5.57821 4.47244 6.90832 4.32378Z" />
</svg>
