<svg width="24" height="24" viewBox="0 0 24 24" fill="black" xmlns="http://www.w3.org/2000/svg">
<path d="M5.8557 6.83962C5.62327 6.71446 5.34216 6.72072 5.11553 6.85608C4.8889 6.99145 4.75012 7.23599 4.75012 7.49997V17C4.75012 17.4142 5.08591 17.75 5.50012 17.75C5.91434 17.75 6.25012 17.4142 6.25012 17V8.75563L11.6445 11.6603C11.8665 11.7799 12.1337 11.7799 12.3557 11.6603L17.7501 8.75563V17C17.7501 17.4142 18.0859 17.75 18.5001 17.75C18.9143 17.75 19.2501 17.4142 19.2501 17V7.49997C19.2501 7.23599 19.1113 6.99145 18.8847 6.85608C18.6581 6.72072 18.377 6.71446 18.1445 6.83962L12.0001 10.1482L5.8557 6.83962Z" />
<path fill-rule="evenodd" clip-rule="evenodd" d="M17.3107 3.7218C13.7774 3.40588 10.2229 3.40588 6.68955 3.7218L5.17221 3.85747C3.54459 4.003 2.22952 5.24642 1.99313 6.86334C1.49513 10.2697 1.49513 13.7303 1.99313 17.1366C2.22952 18.7535 3.54459 19.9969 5.17221 20.1425L6.68955 20.2781C10.2229 20.5941 13.7774 20.5941 17.3107 20.2781L18.8281 20.1425C20.4557 19.9969 21.7707 18.7535 22.0071 17.1366C22.5051 13.7303 22.5051 10.2697 22.0071 6.86334C21.7707 5.24642 20.4557 4.003 18.8281 3.85747L17.3107 3.7218ZM6.82313 5.21584C10.2676 4.90787 13.7327 4.90787 17.1771 5.21584L18.6945 5.35151C19.6306 5.43521 20.387 6.15036 20.5229 7.08033C20.9999 10.3427 20.9999 13.6572 20.5229 16.9196C20.387 17.8496 19.6306 18.5647 18.6945 18.6484L17.1771 18.7841C13.7327 19.0921 10.2676 19.0921 6.82313 18.7841L5.30579 18.6484C4.36967 18.5647 3.61331 17.8496 3.47735 16.9196C3.00039 13.6572 3.00039 10.3427 3.47735 7.08033C3.61331 6.15036 4.36967 5.43521 5.30579 5.35151L6.82313 5.21584Z" />
</svg>
