<svg width="24" height="24" viewBox="0 0 24 24" fill="black" xmlns="http://www.w3.org/2000/svg">
<path d="M16.4105 8.98009L17.2499 8.17716L17.2493 8.00003H14.3475L12.2793 13.1602L9.92651 8.00068H6.88278V8.17716L7.8635 9.35779C7.91091 9.40047 7.94759 9.45373 7.97056 9.51325C7.99353 9.57276 8.00214 9.63685 7.99569 9.70032V14.3414C8.00976 14.4239 8.00424 14.5086 7.97958 14.5886C7.95493 14.6685 7.91181 14.7416 7.85373 14.8018L6.74994 16.1401V16.3159H9.87702V16.1401L8.77388 14.8018C8.71532 14.7416 8.67122 14.6689 8.64493 14.5891C8.61865 14.5094 8.61085 14.4247 8.62215 14.3414V10.3281L11.367 16.3165H11.6861L14.0434 10.3281V15.1014C14.0434 15.2277 14.0434 15.2525 13.9601 15.3358L13.1115 16.159V16.3348H17.2291V16.159L16.4105 15.3554C16.3751 15.3283 16.3478 15.2922 16.3314 15.2507C16.315 15.2093 16.3102 15.1642 16.3174 15.1203V9.21518C16.3102 9.17123 16.315 9.12614 16.3314 9.08472C16.3478 9.04331 16.3751 9.00714 16.4105 8.98009Z" />
<path fill-rule="evenodd" clip-rule="evenodd" d="M17.2582 2.83306C13.7916 2.44562 10.2083 2.44562 6.74171 2.83306C4.72965 3.05794 3.10532 4.64295 2.86876 6.66548C2.45423 10.2098 2.45423 13.7903 2.86876 17.3346C3.10532 19.3571 4.72965 20.9422 6.74171 21.167C10.2083 21.5545 13.7916 21.5545 17.2582 21.167C19.2702 20.9422 20.8946 19.3571 21.1311 17.3346C21.5457 13.7903 21.5457 10.2098 21.1311 6.66548C20.8946 4.64295 19.2703 3.05794 17.2582 2.83306ZM6.90832 4.32378C10.2642 3.94871 13.7357 3.94871 17.0916 4.32378C18.4217 4.47244 19.4872 5.52205 19.6413 6.83973C20.0423 10.2683 20.0423 13.7318 19.6413 17.1604C19.4872 18.478 18.4217 19.5277 17.0916 19.6763C13.7357 20.0514 10.2642 20.0514 6.90832 19.6763C5.57821 19.5277 4.51272 18.478 4.35861 17.1604C3.95761 13.7318 3.95761 10.2683 4.35861 6.83973C4.51272 5.52205 5.57821 4.47244 6.90832 4.32378Z" />
</svg>
