<svg width="24" height="24" viewBox="0 0 24 24" fill="black" xmlns="http://www.w3.org/2000/svg">
<path d="M16.5749 7.25003C16.6366 7.59473 16.5568 7.93086 16.2366 7.96109L15.7053 8.05698L15.4846 16.374C15.0167 16.6242 14.591 16.7615 14.2396 16.7493C13.6729 16.7296 13.5362 16.5344 13.1292 15.9535L9.82402 10.0074L9.67444 15.6431L10.7624 15.9474C10.7624 15.9474 10.7443 16.6282 9.86184 16.5975L7.42238 16.6648C7.35557 16.5103 7.4365 16.1329 7.68668 16.0686L8.32652 15.9004L8.52425 8.45081L7.6438 8.34411C7.58204 7.99941 7.77246 7.51503 8.26599 7.49448L10.8833 7.39512L14.3279 13.4217L14.4665 8.20066L13.5514 8.05443C13.4915 7.63739 13.7802 7.34321 14.1353 7.32029L16.5749 7.25003Z" />
<path fill-rule="evenodd" clip-rule="evenodd" d="M17.2582 2.83306C13.7916 2.44562 10.2083 2.44562 6.74171 2.83306C4.72965 3.05794 3.10532 4.64295 2.86876 6.66548C2.45423 10.2098 2.45423 13.7903 2.86876 17.3346C3.10532 19.3571 4.72965 20.9422 6.74171 21.167C10.2083 21.5545 13.7916 21.5545 17.2582 21.167C19.2702 20.9422 20.8946 19.3571 21.1311 17.3346C21.5457 13.7903 21.5457 10.2098 21.1311 6.66548C20.8946 4.64295 19.2703 3.05794 17.2582 2.83306ZM6.90832 4.32378C10.2642 3.94871 13.7357 3.94871 17.0916 4.32378C18.4217 4.47244 19.4872 5.52205 19.6413 6.83973C20.0423 10.2683 20.0423 13.7318 19.6413 17.1604C19.4872 18.478 18.4217 19.5277 17.0916 19.6763C13.7357 20.0514 10.2642 20.0514 6.90832 19.6763C5.57821 19.5277 4.51272 18.478 4.35861 17.1604C3.95761 13.7318 3.95761 10.2683 4.35861 6.83973C4.51272 5.52205 5.57821 4.47244 6.90832 4.32378Z" />
</svg>
