<svg width="24" height="24" viewBox="0 0 24 24" fill="black" xmlns="http://www.w3.org/2000/svg">
<path fill-rule="evenodd" clip-rule="evenodd" d="M12.0099 22.5972C11.2729 22.673 9.82643 22.748 8.51026 22.7501C7.82291 22.7511 7.14821 22.7324 6.61728 22.6797C6.35503 22.6536 6.1009 22.6168 5.88869 22.561C5.78344 22.5333 5.66318 22.4946 5.54855 22.4367C5.44877 22.3863 5.26407 22.2779 5.13892 22.0668C5.01848 21.8636 4.95999 21.6284 4.98696 21.3826C5.0127 21.148 5.11014 20.9568 5.21239 20.8146C5.40536 20.5463 5.68853 20.3517 5.92038 20.2175C6.02235 20.1584 6.12954 20.1026 6.23843 20.0503C5.77055 19.4778 5.42147 18.8544 5.18754 18.2319C5.0636 18.3862 4.93495 18.5355 4.80886 18.6636C4.70201 18.7722 4.57493 18.8885 4.43625 18.9801C4.32818 19.0515 4.06689 19.2088 3.73424 19.1682C3.38578 19.1255 3.1945 18.8857 3.12255 18.7781C3.03596 18.6486 2.98443 18.5082 2.95143 18.3883C2.88382 18.1428 2.85437 17.8358 2.8607 17.4797C2.87351 16.7595 3.03534 15.7193 3.47411 14.3069C3.81314 13.2152 4.1925 12.2755 4.70272 11.0116L4.70963 10.9945C4.80338 10.7623 4.90168 10.5188 5.00538 10.2604C4.96698 7.942 5.42662 5.73421 6.53487 4.07085C7.69052 2.33635 9.51455 1.2556 12.0012 1.25063C12.0041 1.25063 12.007 1.25061 12.0099 1.25061C12.0127 1.25061 12.0156 1.25061 12.0185 1.25061C14.5052 1.25558 16.3292 2.33635 17.4848 4.07085C18.5931 5.73421 19.0527 7.942 19.0143 10.2604C19.118 10.5188 19.2163 10.7623 19.3101 10.9945L19.317 11.0116C19.8272 12.2755 20.2066 13.2152 20.5456 14.3069C20.9844 15.7193 21.1462 16.7595 21.159 17.4797C21.1653 17.8358 21.1359 18.1428 21.0683 18.3883C21.0353 18.5082 20.9838 18.6486 20.8972 18.7781C20.8252 18.8857 20.6339 19.1255 20.2855 19.1682C19.9528 19.2088 19.6915 19.0515 19.5835 18.9801C19.4448 18.8885 19.3177 18.7722 19.2109 18.6636C19.0848 18.5355 18.9561 18.3862 18.8322 18.2319C18.5982 18.8544 18.2492 19.4778 17.7813 20.0503C17.8902 20.1026 17.9974 20.1584 18.0993 20.2175C18.3312 20.3517 18.6144 20.5463 18.8073 20.8146C18.9096 20.9568 19.007 21.148 19.0328 21.3826C19.0597 21.6284 19.0012 21.8636 18.8808 22.0668C18.7556 22.2779 18.5709 22.3863 18.4712 22.4367C18.3565 22.4946 18.2363 22.5333 18.131 22.561C17.9188 22.6168 17.6647 22.6536 17.4024 22.6797C16.8715 22.7324 16.1968 22.7511 15.5094 22.7501C14.1933 22.748 12.7468 22.673 12.0099 22.5972ZM6.50822 10.3779C6.45094 8.18709 6.87964 6.25865 7.78317 4.90256C8.66031 3.58609 10.0176 2.75301 12.0099 2.75062C14.0022 2.75301 15.3594 3.58609 16.2365 4.90256C17.1401 6.25865 17.5688 8.18709 17.5115 10.3779C17.5088 10.48 17.527 10.5816 17.565 10.6764C17.6906 10.9898 17.8083 11.2813 17.9188 11.5552C18.4365 12.8375 18.794 13.7243 19.1131 14.7518C19.3687 15.5745 19.5139 16.2314 19.5894 16.7396C19.3158 16.3504 19.1005 16.0062 19.0804 15.9738C18.924 15.7227 18.6346 15.5869 18.3415 15.6272L18.3403 15.6274C17.9696 15.6784 17.6932 15.9947 17.6925 16.3689C17.6905 17.3654 17.1616 18.7537 15.9659 19.7667C15.8318 19.8804 15.7418 20.0375 15.7118 20.2107L15.7115 20.212C15.6718 20.4412 15.7406 20.6758 15.8978 20.8472L15.8987 20.8482C15.9886 20.9463 16.103 21.0186 16.2301 21.0579C16.3709 21.1014 16.5413 21.1585 16.7164 21.2254C16.3563 21.2431 15.9451 21.2507 15.5118 21.2501C14.1867 21.248 12.6525 21.1635 12.0099 21.0929C11.3672 21.1635 9.83303 21.248 8.50793 21.2501C8.07459 21.2507 7.6634 21.2431 7.30336 21.2254C7.47842 21.1585 7.64885 21.1014 7.78962 21.0579C7.91671 21.0186 8.03108 20.9463 8.12099 20.8482L8.12195 20.8472C8.27915 20.6758 8.34793 20.4412 8.30817 20.212L8.30794 20.2107C8.27789 20.0375 8.18794 19.8804 8.05381 19.7667C6.85811 18.7537 6.32926 17.3654 6.32725 16.3689C6.3265 15.9947 6.05011 15.6784 5.67946 15.6274L5.67819 15.6272C5.3851 15.5869 5.0957 15.7227 4.93932 15.9738C4.91917 16.0062 4.70394 16.3504 4.43029 16.7396C4.50585 16.2314 4.65103 15.5745 4.9066 14.7518C5.2257 13.7243 5.58297 12.8382 6.10064 11.5558C6.21117 11.282 6.32917 10.9897 6.4547 10.6764C6.49267 10.5816 6.51089 10.48 6.50822 10.3779Z" />
</svg>
