<svg width="24" height="24" viewBox="0 0 24 24" fill="black" xmlns="http://www.w3.org/2000/svg">
<path d="M10.8729 16.4069C10.9218 16.2903 10.9469 16.1653 10.9468 16.039V6.95853C10.9468 6.42953 10.5115 6.00003 9.97274 6.00003H6.97147C6.43528 6.00003 5.99994 6.43003 5.99994 6.95853V16.039C6.00021 16.2934 6.10257 16.5373 6.28464 16.7174C6.4667 16.8975 6.71366 16.9991 6.97147 17H9.97274C10.1007 17.0002 10.2274 16.9754 10.3457 16.9271C10.4639 16.8789 10.5713 16.8081 10.6618 16.7189C10.7523 16.6296 10.824 16.5236 10.8729 16.4069Z" />
<path d="M17.7154 12.7175C17.8975 12.5374 17.9998 12.2934 17.9999 12.039V6.95853C17.9999 6.42953 17.5641 6.00003 17.0284 6.00003H14.0271C13.4914 6.00003 13.0531 6.43003 13.0531 6.95853V12.039C13.0533 12.2938 13.156 12.5381 13.3387 12.7183C13.5213 12.8984 13.7689 12.9998 14.0271 13H17.0284C17.2863 12.9992 17.5333 12.8977 17.7154 12.7175Z" />
<path fill-rule="evenodd" clip-rule="evenodd" d="M17.2582 2.83306C13.7916 2.44562 10.2083 2.44562 6.74171 2.83306C4.72965 3.05794 3.10532 4.64295 2.86876 6.66548C2.45423 10.2098 2.45423 13.7903 2.86876 17.3346C3.10532 19.3571 4.72965 20.9422 6.74171 21.167C10.2083 21.5545 13.7916 21.5545 17.2582 21.167C19.2702 20.9422 20.8946 19.3571 21.1311 17.3346C21.5457 13.7903 21.5457 10.2098 21.1311 6.66548C20.8946 4.64295 19.2703 3.05794 17.2582 2.83306ZM6.90832 4.32378C10.2642 3.94871 13.7357 3.94871 17.0916 4.32378C18.4217 4.47244 19.4872 5.52205 19.6413 6.83973C20.0423 10.2683 20.0423 13.7318 19.6413 17.1604C19.4872 18.478 18.4217 19.5277 17.0916 19.6763C13.7357 20.0514 10.2642 20.0514 6.90832 19.6763C5.57821 19.5277 4.51272 18.478 4.35861 17.1604C3.95761 13.7318 3.95761 10.2683 4.35861 6.83973C4.51272 5.52205 5.57821 4.47244 6.90832 4.32378Z" />
</svg>
