<svg width="24" height="24" viewBox="0 0 24 24" fill="black" xmlns="http://www.w3.org/2000/svg">
<path fill-rule="evenodd" clip-rule="evenodd" d="M21.094 12.7559C21.0738 12.7491 21.0522 12.7454 21.0298 12.7454H12.4766C12.4542 12.7454 12.4326 12.7491 12.4124 12.7559C12.3335 12.7826 12.2766 12.8574 12.2766 12.9454V19.3675C12.2766 19.4656 12.3477 19.5491 12.4445 19.5649L20.9976 20.9576C21.1193 20.9774 21.2298 20.8835 21.2298 20.7602V12.9454C21.2298 12.8574 21.1729 12.7826 21.094 12.7559ZM19.7298 19.2314V14.2454H13.7766V18.2621L19.7298 19.2314ZM12.4124 11.2466C12.4326 11.2534 12.4542 11.2571 12.4766 11.2571H21.0298C21.0522 11.2571 21.0738 11.2534 21.094 11.2466C21.1729 11.2198 21.2298 11.1451 21.2298 11.0571V3.23826C21.2298 3.11474 21.1189 3.02076 20.9971 3.04095L12.4439 4.45826C12.3474 4.47425 12.2766 4.55773 12.2766 4.65557V11.0571C12.2766 11.1451 12.3335 11.2198 12.4124 11.2466ZM19.7298 4.7714L13.7766 5.75788V9.75709H19.7298V4.7714ZM10.2405 11.2463C10.3229 11.2216 10.3829 11.1452 10.3829 11.0547V4.96794C10.3829 4.84443 10.2721 4.75044 10.1502 4.77063L2.98225 5.95827C2.88573 5.97426 2.81494 6.05774 2.81494 6.15558V11.0547C2.81494 11.1452 2.87497 11.2216 2.95735 11.2463C2.97559 11.2518 2.99492 11.2547 3.01494 11.2547H10.1829C10.2029 11.2547 10.2222 11.2518 10.2405 11.2463ZM8.8829 6.50106L4.31494 7.25791V9.75475H8.8829V6.50106ZM10.2405 12.7538C10.2222 12.7483 10.2029 12.7454 10.1829 12.7454H3.01494C2.99492 12.7454 2.97559 12.7483 2.95735 12.7538C2.87497 12.7785 2.81494 12.8549 2.81494 12.9454V17.891C2.81494 17.989 2.88602 18.0726 2.98279 18.0883L10.1507 19.256C10.2724 19.2758 10.3829 19.1819 10.3829 19.0586V12.9454C10.3829 12.8549 10.3229 12.7785 10.2405 12.7538ZM8.8829 17.5297V14.2454H4.31494V16.7856L8.8829 17.5297Z" />
</svg>
