<svg width="24" height="24" viewBox="0 0 24 24" fill="black" xmlns="http://www.w3.org/2000/svg">
<path fill-rule="evenodd" clip-rule="evenodd" d="M10.386 8.35691C10.1543 8.21789 9.86573 8.21425 9.6306 8.34738C9.39547 8.48051 9.25012 8.72983 9.25012 9.00003V15C9.25012 15.2702 9.39547 15.5196 9.6306 15.6527C9.86573 15.7858 10.1543 15.7822 10.386 15.6432L15.386 12.6432C15.6119 12.5076 15.7501 12.2635 15.7501 12C15.7501 11.7366 15.6119 11.4925 15.386 11.3569L10.386 8.35691ZM13.5424 12L10.7501 13.6754V10.3247L13.5424 12Z" />
<path fill-rule="evenodd" clip-rule="evenodd" d="M17.0308 4.64131C13.6821 4.37933 10.3182 4.37933 6.96951 4.64131L4.72881 4.81661C3.36624 4.92321 2.25155 5.94442 2.02632 7.29246C1.50555 10.4092 1.50555 13.5908 2.02632 16.7076C2.25155 18.0556 3.36624 19.0768 4.72881 19.1834L6.96951 19.3587C10.3182 19.6207 13.6821 19.6207 17.0308 19.3587L19.2715 19.1834C20.6341 19.0768 21.7488 18.0556 21.974 16.7076C22.4948 13.5908 22.4948 10.4092 21.974 7.29246C21.7488 5.94442 20.6341 4.92321 19.2715 4.81661L17.0308 4.64131ZM7.0865 6.13674C10.3573 5.88085 13.643 5.88085 16.9138 6.13674L19.1545 6.31204C19.8301 6.3649 20.3828 6.87125 20.4945 7.53966C20.9879 10.4928 20.9879 13.5073 20.4945 16.4604C20.3828 17.1288 19.8301 17.6352 19.1545 17.688L16.9138 17.8633C13.643 18.1192 10.3573 18.1192 7.0865 17.8633L4.8458 17.688C4.17019 17.6352 3.61749 17.1288 3.50581 16.4604C3.01239 13.5073 3.01239 10.4928 3.50581 7.53966C3.61749 6.87125 4.17019 6.3649 4.8458 6.31204L7.0865 6.13674Z" />
</svg>
