<svg width="24" height="24" viewBox="0 0 24 24" fill="black" xmlns="http://www.w3.org/2000/svg">
<path d="M15.0857 12.4685C14.8269 12.792 14.355 12.8444 14.0315 12.5857L12.7501 11.5605V15C12.7501 15.4142 12.4143 15.75 12.0001 15.75C11.5858 15.75 11.2501 15.4142 11.2501 15V11.5604L9.96855 12.5857C9.64511 12.8444 9.17314 12.792 8.91438 12.4685C8.65562 12.1451 8.70807 11.6731 9.03151 11.4143L11.5288 9.41648C11.6561 9.31359 11.8177 9.25148 11.9937 9.25003C11.9958 9.25001 11.998 9.25 12.0001 9.25L12.0025 9.25C12.1816 9.25057 12.3459 9.31392 12.4746 9.41919L14.9686 11.4143C15.292 11.6731 15.3444 12.1451 15.0857 12.4685Z" />
<path fill-rule="evenodd" clip-rule="evenodd" d="M8.38009 7.19402C9.34183 5.69973 11.0205 4.70831 12.932 4.70831C15.8125 4.70831 18.1671 6.95976 18.3322 9.79889C18.3956 9.79622 18.4593 9.79487 18.5233 9.79487C20.9962 9.79487 23.0009 11.7995 23.0009 14.2724C23.0009 16.7453 20.9962 18.75 18.5233 18.75H6.87467C3.62978 18.75 0.999268 16.1195 0.999268 12.8746C0.999268 9.6297 3.62978 6.99919 6.87467 6.99919C7.39433 6.99919 7.89905 7.06684 8.38009 7.19402ZM12.932 6.20831C11.3817 6.20831 10.0407 7.11064 9.40819 8.42212C9.23814 8.77473 8.82549 8.93724 8.46067 8.79528C7.96993 8.60433 7.43547 8.49919 6.87467 8.49919C4.4582 8.49919 2.49927 10.4581 2.49927 12.8746C2.49927 15.2911 4.4582 17.25 6.87467 17.25H18.5233C20.1678 17.25 21.5009 15.9169 21.5009 14.2724C21.5009 12.628 20.1678 11.2949 18.5233 11.2949C18.2557 11.2949 17.9975 11.33 17.7525 11.3954C17.5123 11.4596 17.2559 11.4005 17.0679 11.2378C16.88 11.075 16.7849 10.8296 16.8141 10.5827C16.8321 10.4305 16.8414 10.2754 16.8414 10.1178C16.8414 7.95864 15.0911 6.20831 12.932 6.20831Z" />
</svg>
