<svg width="24" height="24" viewBox="0 0 24 24" fill="black" xmlns="http://www.w3.org/2000/svg">
<path fill-rule="evenodd" clip-rule="evenodd" d="M21.0304 4.83032C21.3233 4.53742 21.3233 4.06255 21.0304 3.76966C20.7375 3.47676 20.2626 3.47676 19.9697 3.76966L3.96973 19.7697C3.67684 20.0626 3.67684 20.5374 3.96973 20.8303C4.26262 21.1232 4.7375 21.1232 5.03039 20.8303L7.11071 18.75H18.5233C20.9962 18.75 23.0009 16.7453 23.0009 14.2724C23.0009 11.7995 20.9962 9.79487 18.5233 9.79487C18.4593 9.79487 18.3956 9.79622 18.3322 9.79889C18.2945 9.15021 18.1425 8.5322 17.896 7.96472L21.0304 4.83032ZM16.7187 9.14203L8.61071 17.25H18.5233C20.1678 17.25 21.5009 15.9169 21.5009 14.2724C21.5009 12.628 20.1678 11.2949 18.5233 11.2949C18.2557 11.2949 17.9975 11.33 17.7525 11.3954C17.5123 11.4596 17.2559 11.4005 17.0679 11.2378C16.88 11.075 16.7849 10.8296 16.8141 10.5827C16.8321 10.4305 16.8414 10.2754 16.8414 10.1178C16.8414 9.78087 16.7988 9.45393 16.7187 9.14203Z" />
<path d="M12.932 4.70831C14.0389 4.70831 15.0681 5.04077 15.9253 5.61127C16.0522 5.69573 16.0649 5.87445 15.9572 5.98224L15.2295 6.70985C15.1455 6.79386 15.0144 6.80637 14.912 6.74611C14.3313 6.40434 13.6545 6.20831 12.932 6.20831C11.3817 6.20831 10.0407 7.11064 9.40819 8.42212C9.23814 8.77473 8.82549 8.93724 8.46067 8.79528C7.96993 8.60433 7.43547 8.49919 6.87467 8.49919C4.4582 8.49919 2.49927 10.4581 2.49927 12.8746C2.49927 14.5209 3.40852 15.9549 4.75224 16.7017C4.90503 16.7866 4.94319 16.9962 4.81959 17.1198L4.09647 17.8429C4.01672 17.9227 3.89314 17.9396 3.79711 17.8805C2.11837 16.8462 0.999268 14.9911 0.999268 12.8746C0.999268 9.6297 3.62978 6.99919 6.87467 6.99919C7.39433 6.99919 7.89905 7.06684 8.38009 7.19402C9.34183 5.69973 11.0205 4.70831 12.932 4.70831Z" />
</svg>
