<svg width="24" height="24" viewBox="0 0 24 24" fill="black" xmlns="http://www.w3.org/2000/svg">
<path d="M18.6799 9.98322C18.7195 10.231 18.7545 10.4792 18.785 10.7279C18.8027 10.8722 18.896 10.9956 19.0277 11.0569C19.3825 11.2219 19.7184 11.4206 20.0314 11.6488C20.1739 11.7528 20.3818 11.6471 20.3677 11.4712C20.3214 10.8947 20.2526 10.3194 20.1612 9.74679L20.0971 9.34535C19.8912 8.05533 18.7785 7.10612 17.4721 7.10612L9.15768 7.10612C8.95216 6.04846 8.0209 5.25 6.90314 5.25H4.61158C3.25529 5.25 2.11289 6.26343 1.95118 7.61004L1.6787 9.87915C1.38904 12.2913 1.46379 14.7333 1.90046 17.1232C2.11598 18.3027 3.10248 19.1869 4.29851 19.2725L5.81252 19.3808C7.53648 19.5041 9.26373 19.5659 10.991 19.5661C11.1457 19.5661 11.242 19.3969 11.1708 19.2596C11.0215 18.9719 10.8948 18.6706 10.7931 18.358C10.7374 18.1866 10.5813 18.0651 10.4011 18.0636C8.90618 18.051 7.41161 17.9914 5.91956 17.8846L4.40555 17.7763C3.89208 17.7396 3.46856 17.36 3.37603 16.8536C2.9664 14.6116 2.89627 12.3208 3.168 10.058L3.44048 7.78888C3.51167 7.19611 4.01455 6.75 4.61158 6.75H6.90314C7.34319 6.75 7.69991 7.10672 7.69991 7.54677C7.69991 8.13183 8.1742 8.60612 8.75926 8.60612H17.4721C18.0413 8.60612 18.5261 9.0197 18.6159 9.58178L18.6799 9.98322Z" />
<path fill-rule="evenodd" clip-rule="evenodd" d="M11.9999 16.5C11.9999 17.4719 12.308 18.3718 12.8318 19.1074C13.1237 19.5173 13.4826 19.8762 13.8925 20.1681C14.6281 20.6919 15.528 21 16.4999 21C18.9852 21 20.9999 18.9853 20.9999 16.5C20.9999 15.5281 20.6918 14.6282 20.168 13.8926C19.8761 13.4827 19.5172 13.1238 19.1073 12.8319C18.3717 12.3081 17.4718 12 16.4999 12C14.0146 12 11.9999 14.0147 11.9999 16.5ZM16.4999 19.5C15.9436 19.5 15.4226 19.3486 14.9759 19.0846L19.0845 14.976C19.3485 15.4227 19.4999 15.9436 19.4999 16.5C19.4999 18.1569 18.1568 19.5 16.4999 19.5ZM13.9153 18.024L18.0239 13.9154C17.5772 13.6514 17.0563 13.5 16.4999 13.5C14.8431 13.5 13.4999 14.8431 13.4999 16.5C13.4999 17.0564 13.6514 17.5773 13.9153 18.024Z" />
</svg>
