<svg width="24" height="24" viewBox="0 0 24 24" fill="black" xmlns="http://www.w3.org/2000/svg">
<path d="M9.70182 11.2019C9.99471 10.909 10.4696 10.909 10.7625 11.2019L11.9999 12.4393L13.2373 11.2019C13.5302 10.909 14.0051 10.909 14.298 11.2019C14.5909 11.4948 14.5909 11.9697 14.298 12.2626L13.0606 13.5L14.298 14.7374C14.5909 15.0303 14.5909 15.5052 14.298 15.7981C14.0051 16.091 13.5302 16.091 13.2374 15.7981L11.9999 14.5607L10.7625 15.7981C10.4696 16.091 9.99471 16.091 9.70181 15.7981C9.40892 15.5052 9.40892 15.0303 9.70181 14.7374L10.9393 13.5L9.70182 12.2626C9.40892 11.9697 9.40892 11.4948 9.70182 11.2019Z" />
<path fill-rule="evenodd" clip-rule="evenodd" d="M21.1612 9.74679C21.558 12.233 21.5296 14.7686 21.077 17.2453C20.8747 18.353 19.9483 19.1833 18.8252 19.2636L17.1873 19.3808C13.7335 19.6279 10.2664 19.6279 6.81252 19.3808L5.29851 19.2725C4.10248 19.1869 3.11598 18.3027 2.90046 17.1232C2.46379 14.7333 2.38904 12.2913 2.6787 9.87915L2.95118 7.61004C3.11289 6.26343 4.25529 5.25 5.61158 5.25H7.90314C9.0209 5.25 9.95216 6.04846 10.1577 7.10612L18.4721 7.10612C19.7785 7.10612 20.8912 8.05533 21.0971 9.34535L21.1612 9.74679ZM19.6015 16.9757C20.0235 14.6662 20.05 12.3017 19.6799 9.98322L19.6159 9.58178C19.5261 9.0197 19.0413 8.60612 18.4721 8.60612H9.75926C9.1742 8.60612 8.69991 8.13183 8.69991 7.54677C8.69991 7.10672 8.34319 6.75 7.90314 6.75H5.61158C5.01455 6.75 4.51167 7.19611 4.44048 7.78888L4.168 10.058C3.89627 12.3208 3.9664 14.6116 4.37603 16.8536C4.46856 17.36 4.89208 17.7396 5.40555 17.7763L6.91956 17.8846C10.3021 18.1266 13.6977 18.1266 17.0803 17.8846L18.7181 17.7674C19.1587 17.7359 19.5221 17.4102 19.6015 16.9757Z" />
</svg>
