<svg width="24" height="24" viewBox="0 0 24 24" fill="black" xmlns="http://www.w3.org/2000/svg">
<path d="M13.0671 8.4838C10.6763 8.39582 8.28176 8.44641 5.89539 8.63558L5.70666 8.65054C5.26771 8.68534 4.90262 9.00202 4.80615 9.43165C4.42768 11.1172 4.42782 12.8662 4.80627 14.5516C4.90245 14.9799 5.26576 15.2964 5.70356 15.3325L5.87783 15.3469C8.27003 15.5445 10.6712 15.5974 13.0682 15.5059C13.4709 15.4905 13.7895 15.1595 13.7895 14.7564V9.23329C13.7895 8.82981 13.4703 8.49863 13.0671 8.4838Z" />
<path fill-rule="evenodd" clip-rule="evenodd" d="M22.2501 14V9.99997C22.2501 9.03347 21.4666 8.24997 20.5001 8.24997H19.8501V8.18964C19.8501 6.9186 18.8722 5.8615 17.605 5.7627L16.3365 5.66379C12.7843 5.38681 9.21585 5.38681 5.66363 5.66379L4.31603 5.76886C3.10638 5.86318 2.11649 6.76932 1.91588 7.96594C1.46814 10.6367 1.46814 13.3633 1.91588 16.034C2.11649 17.2306 3.10638 18.1368 4.31602 18.2311L5.66363 18.3361C9.21586 18.6131 12.7843 18.6131 16.3365 18.3361L17.605 18.2372C18.8722 18.1384 19.8501 17.0813 19.8501 15.8103V15.75H20.5001C21.4666 15.75 22.2501 14.9665 22.2501 14ZM20.7501 9.99997V14C20.7501 14.138 20.6381 14.25 20.5001 14.25L19.1001 14.25C18.6858 14.25 18.3501 14.5858 18.3501 15V15.8103C18.3501 16.2981 17.9747 16.7039 17.4884 16.7418L16.2199 16.8407C12.7453 17.1116 9.25484 17.1116 5.78023 16.8407L4.43263 16.7356C3.9098 16.6948 3.48194 16.3032 3.39524 15.786C2.97503 13.2795 2.97503 10.7205 3.39524 8.21395C3.48195 7.69674 3.9098 7.30509 4.43263 7.26432L5.78023 7.15925C9.25484 6.88832 12.7453 6.88832 16.2199 7.15925L17.4884 7.25816C17.9747 7.29608 18.3501 7.7018 18.3501 8.18964V8.99997C18.3501 9.41418 18.6858 9.74997 19.1001 9.74997H20.5001C20.6381 9.74997 20.7501 9.8619 20.7501 9.99997Z" />
</svg>
