<svg width="24" height="24" viewBox="0 0 24 24" fill="black" xmlns="http://www.w3.org/2000/svg">
<path fill-rule="evenodd" clip-rule="evenodd" d="M18.7503 10.5L18.7438 10.7429L18.7503 11L18.7441 11.2433L18.7503 11.5L18.7444 11.7449L18.7502 12L18.5879 19.103C18.5493 20.7883 17.2676 22.184 15.5916 22.3655C13.2042 22.624 10.7959 22.624 8.40843 22.3655C6.73252 22.184 5.45075 20.7883 5.41223 19.103L5.24985 12L5.25572 11.7432L5.24986 11.5L5.25602 11.2443L5.24981 11L5.25632 10.744L5.24976 10.5L5.41376 4.40211C5.41605 4.31703 5.42203 4.23283 5.43155 4.14968L5.43528 4.11452L5.43824 4.08618C5.51885 3.26208 5.97553 2.54332 6.64105 2.11199C6.69071 2.07897 6.74152 2.04752 6.79344 2.01772C6.84422 1.98767 6.89605 1.95917 6.94887 1.93228C7.27547 1.75992 7.63996 1.6482 8.02796 1.61248C10.6704 1.36924 13.3296 1.36924 15.9721 1.61248C16.3595 1.64814 16.7234 1.75956 17.0496 1.93146C17.1024 1.95831 17.1543 1.98677 17.2051 2.01678C17.2586 2.04747 17.311 2.07992 17.3622 2.11403C18.0242 2.5444 18.4788 3.25943 18.5612 4.07938L18.569 4.15368C18.5782 4.23553 18.584 4.31839 18.5863 4.40211L18.7503 10.5ZM17.0743 4.32073L17.2313 11.1874L17.104 15.9176C17.0754 16.981 16.2563 17.8551 15.1971 17.9526C13.0702 18.1483 10.9298 18.1483 8.80298 17.9526C7.74371 17.8551 6.92461 16.981 6.89601 15.9176L6.7688 11.188L6.92579 4.32073C6.92613 4.30595 6.92675 4.29124 6.92763 4.2766C6.98711 3.87432 7.22025 3.52708 7.55079 3.31621C7.67601 3.25093 7.81495 3.20764 7.96275 3.19164C10.6464 2.90101 13.3536 2.90101 16.0373 3.19164C16.1851 3.20764 16.324 3.2509 16.4491 3.31613C16.7798 3.52705 17.0131 3.87446 17.0725 4.27693C17.0733 4.29147 17.074 4.30606 17.0743 4.32073ZM12.0001 21.7C12.8285 21.7 13.5001 21.0285 13.5001 20.2C13.5001 19.3716 12.8285 18.7 12.0001 18.7C11.1716 18.7 10.5001 19.3716 10.5001 20.2C10.5001 21.0285 11.1716 21.7 12.0001 21.7Z" />
</svg>
