<svg width="24" height="24" viewBox="0 0 24 24" fill="black" xmlns="http://www.w3.org/2000/svg">
<path d="M5.99991 7.5C5.99991 6.94772 6.44762 6.5 6.99991 6.5C7.55219 6.5 7.99991 6.94772 7.99991 7.5C7.99991 8.05228 7.55219 8.5 6.99991 8.5C6.44762 8.5 5.99991 8.05228 5.99991 7.5Z" />
<path d="M8.99991 7.5C8.99991 6.94772 9.44762 6.5 9.99991 6.5C10.5522 6.5 10.9999 6.94772 10.9999 7.5C10.9999 8.05228 10.5522 8.5 9.99991 8.5C9.44762 8.5 8.99991 8.05228 8.99991 7.5Z" />
<path d="M6.99991 13.5C6.44762 13.5 5.99991 13.9477 5.99991 14.5C5.99991 15.0523 6.44762 15.5 6.99991 15.5C7.55219 15.5 7.99991 15.0523 7.99991 14.5C7.99991 13.9477 7.55219 13.5 6.99991 13.5Z" />
<path d="M9.99991 13.5C9.44762 13.5 8.99991 13.9477 8.99991 14.5C8.99991 15.0523 9.44762 15.5 9.99991 15.5C10.5522 15.5 10.9999 15.0523 10.9999 14.5C10.9999 13.9477 10.5522 13.5 9.99991 13.5Z" />
<path fill-rule="evenodd" clip-rule="evenodd" d="M5.94727 3.25C4.42848 3.25 3.19727 4.48122 3.19727 6V9C3.19727 9.78801 3.52871 10.4986 4.0598 11C3.52871 11.5014 3.19727 12.212 3.19727 13V16C3.19727 17.5188 4.42848 18.75 5.94727 18.75H11.2499V20.25H4.99991C4.5857 20.25 4.24991 20.5858 4.24991 21C4.24991 21.4142 4.5857 21.75 4.99991 21.75H18.9999C19.4141 21.75 19.7499 21.4142 19.7499 21C19.7499 20.5858 19.4141 20.25 18.9999 20.25H12.7499V18.75H17.9473C19.466 18.75 20.6973 17.5188 20.6973 16V13C20.6973 12.212 20.3658 11.5014 19.8347 11C20.3658 10.4986 20.6973 9.78802 20.6973 9V6C20.6973 4.48122 19.466 3.25 17.9473 3.25H5.94727ZM5.94727 10.25H17.9473C18.6376 10.25 19.1973 9.69036 19.1973 9V6C19.1973 5.30964 18.6376 4.75 17.9473 4.75H5.94727C5.25691 4.75 4.69727 5.30964 4.69727 6V9C4.69727 9.69036 5.25691 10.25 5.94727 10.25ZM5.94727 11.75C5.25691 11.75 4.69727 12.3096 4.69727 13V16C4.69727 16.6904 5.25691 17.25 5.94727 17.25H17.9473C18.6376 17.25 19.1973 16.6904 19.1973 16V13C19.1973 12.3096 18.6376 11.75 17.9473 11.75H5.94727Z" />
</svg>
