<svg width="24" height="24" viewBox="0 0 24 24" fill="black" xmlns="http://www.w3.org/2000/svg">
<path fill-rule="evenodd" clip-rule="evenodd" d="M15.9241 4.41833C13.331 3.9836 10.6689 3.9836 8.07573 4.41833C7.58773 4.50014 7.20014 4.87507 7.10287 5.35801C6.21779 9.75199 6.1695 14.2735 6.96052 18.6854L7.12407 19.5976L10.7946 16.1106C11.47 15.4689 12.5298 15.4689 13.2052 16.1106L16.8758 19.5976L17.0393 18.6854C17.8303 14.2735 17.782 9.75199 16.897 5.35801C16.7997 4.87507 16.4121 4.50014 15.9241 4.41833ZM7.82772 2.93898C10.585 2.47672 13.4148 2.47672 16.1721 2.93898C17.2713 3.12326 18.1469 3.96707 18.3674 5.06181C19.2898 9.64072 19.3401 14.3525 18.5158 18.9501L18.2943 20.1854C18.1084 21.2223 16.8443 21.6367 16.0806 20.9112L12.1721 17.1981C12.0756 17.1064 11.9242 17.1064 11.8277 17.1981L7.91919 20.9112C7.15549 21.6367 5.89145 21.2223 5.70555 20.1854L5.48407 18.9501C4.65975 14.3525 4.71007 9.64073 5.6324 5.06181C5.85291 3.96707 6.72851 3.12326 7.82772 2.93898Z" />
</svg>
