<svg width="24" height="24" viewBox="0 0 24 24" fill="black" xmlns="http://www.w3.org/2000/svg">
<path d="M7.48334 5.25948C6.33891 5.38738 5.42286 6.29063 5.29045 7.42274C4.93476 10.4639 4.93476 13.5361 5.29045 16.5773C5.42286 17.7094 6.33891 18.6126 7.48334 18.7405C10.4602 19.0732 13.5398 19.0732 16.5166 18.7405C17.6611 18.6126 18.5771 17.7094 18.7095 16.5773C18.9651 14.3921 19.037 12.1909 18.9253 9.99674C18.9224 9.94008 18.9436 9.88481 18.9837 9.84469L20.0225 8.80591C20.1427 8.68568 20.3482 8.76086 20.3609 8.93042C20.557 11.5353 20.5031 14.1544 20.1994 16.7515C19.9845 18.5885 18.5096 20.0271 16.6832 20.2313C13.5957 20.5763 10.4043 20.5763 7.31673 20.2313C5.49035 20.0271 4.01545 18.5885 3.8006 16.7515C3.43137 13.5946 3.43137 10.4054 3.8006 7.24849C4.01545 5.41153 5.49035 3.97288 7.31673 3.76876C10.4043 3.42368 13.5957 3.42368 16.6832 3.76876C17.3265 3.84065 17.9261 4.06568 18.4425 4.40732C18.5441 4.47454 18.5542 4.61738 18.468 4.70353L17.6652 5.50641C17.5995 5.57208 17.4976 5.58313 17.4158 5.53926C17.1423 5.39277 16.8385 5.29545 16.5166 5.25948C13.5398 4.92677 10.4602 4.92677 7.48334 5.25948Z" />
<path d="M21.0303 6.03034C21.3232 5.73744 21.3232 5.26257 21.0303 4.96968C20.7374 4.67678 20.2625 4.67678 19.9696 4.96968L11.5 13.4393L9.0303 10.9697C8.73741 10.6768 8.26253 10.6768 7.96964 10.9697C7.67675 11.2626 7.67675 11.7374 7.96964 12.0303L10.9696 15.0303C11.2625 15.3232 11.7374 15.3232 12.0303 15.0303L21.0303 6.03034Z" />
</svg>
