<svg width="24" height="24" viewBox="0 0 24 24" fill="black" xmlns="http://www.w3.org/2000/svg">
<path d="M13.0001 8.99999C13.0001 9.55227 12.5523 9.99999 12.0001 9.99999C11.4478 9.99999 11.0001 9.55227 11.0001 8.99999C11.0001 8.4477 11.4478 7.99999 12.0001 7.99999C12.5523 7.99999 13.0001 8.4477 13.0001 8.99999Z" />
<path d="M12.0001 11.75C12.4143 11.75 12.7501 12.0858 12.7501 12.5V17.5C12.7501 17.9142 12.4143 18.25 12.0001 18.25C11.5858 18.25 11.2501 17.9142 11.2501 17.5V12.5C11.2501 12.0858 11.5858 11.75 12.0001 11.75Z" />
<path fill-rule="evenodd" clip-rule="evenodd" d="M14.2704 3.99262C13.1784 2.39496 10.8216 2.39495 9.72967 3.99262L9.29775 4.62457C6.59171 8.58378 4.26675 12.7904 2.35402 17.1881L2.2638 17.3955C1.58975 18.9453 2.60811 20.705 4.28766 20.8927C9.41329 21.4656 14.5868 21.4656 19.7124 20.8927C21.392 20.705 22.4103 18.9453 21.7363 17.3955L21.6461 17.1881C19.7333 12.7904 17.4084 8.58379 14.7023 4.62457L14.2704 3.99262ZM10.9681 4.83903C11.4644 4.11282 12.5357 4.11282 13.032 4.83903L13.4639 5.47098C16.1165 9.352 18.3956 13.4755 20.2705 17.7863L20.3608 17.9938C20.6322 18.6178 20.2221 19.3264 19.5458 19.402C14.5309 19.9625 9.46917 19.9625 4.45427 19.402C3.77797 19.3264 3.36791 18.6178 3.63933 17.9938L3.72954 17.7863C5.6045 13.4755 7.88354 9.35199 10.5361 5.47098L10.9681 4.83903Z" />
</svg>
