<svg width="24" height="24" viewBox="0 0 24 24" fill="black" xmlns="http://www.w3.org/2000/svg">
<path d="M10.5001 16C10.5001 15.1716 11.1716 14.5 12.0001 14.5C12.8285 14.5 13.5001 15.1716 13.5001 16C13.5001 16.8284 12.8285 17.5 12.0001 17.5C11.1716 17.5 10.5001 16.8284 10.5001 16Z" />
<path fill-rule="evenodd" clip-rule="evenodd" d="M7.62171 10.5971L7.30627 7.75816C7.26583 7.39418 7.26583 7.02684 7.30627 6.66286L7.32904 6.45796C7.57053 4.28457 9.27913 2.56492 11.4509 2.30941C11.8157 2.26649 12.1843 2.26649 12.5492 2.30941C14.7209 2.56492 16.4295 4.28458 16.671 6.45797L16.6938 6.66286C16.7342 7.02684 16.7342 7.39418 16.6938 7.75815L16.3784 10.5971L17.065 10.6519C18.1477 10.7384 19.0318 11.5523 19.2073 12.6242C19.5734 14.8598 19.5734 17.1401 19.2073 19.3758C19.0318 20.4477 18.1477 21.2616 17.065 21.348L15.5688 21.4675C13.1935 21.6571 10.8067 21.6571 8.43134 21.4675L6.93521 21.348C5.85249 21.2616 4.96838 20.4477 4.79286 19.3758C4.42679 17.1401 4.42679 14.8598 4.79286 12.6242C4.96838 11.5523 5.85248 10.7384 6.93521 10.6519L7.62171 10.5971ZM11.6262 3.79914C11.8746 3.76992 12.1255 3.76992 12.3739 3.79914C13.8525 3.97309 15.0158 5.1439 15.1802 6.62361L15.203 6.82851C15.2312 7.08239 15.2312 7.33862 15.203 7.59251L14.8818 10.483C12.9626 10.3594 11.0375 10.3594 9.11826 10.483L8.7971 7.59251C8.76889 7.33862 8.76889 7.08239 8.7971 6.82851L8.81986 6.62361C8.98428 5.1439 10.1475 3.97309 11.6262 3.79914ZM15.4495 12.0277C13.1535 11.8445 10.8466 11.8445 8.55071 12.0277L7.05458 12.1472C6.65965 12.1787 6.33717 12.4756 6.27315 12.8666C5.93336 14.9417 5.93336 17.0583 6.27315 19.1334C6.33717 19.5244 6.65965 19.8213 7.05458 19.8528L8.55071 19.9722C10.8466 20.1555 13.1535 20.1555 15.4495 19.9722L16.9456 19.8528C17.3405 19.8213 17.663 19.5244 17.727 19.1334C18.0668 17.0583 18.0668 14.9417 17.727 12.8666C17.663 12.4756 17.3405 12.1787 16.9456 12.1472L15.4495 12.0277Z" />
</svg>
