<svg width="24" height="24" viewBox="0 0 24 24" fill="black" xmlns="http://www.w3.org/2000/svg">
<path fill-rule="evenodd" clip-rule="evenodd" d="M5.62554 9.63128L5.30631 6.75819C5.26587 6.39421 5.26587 6.02687 5.30631 5.66289L5.32908 5.45799C5.57056 3.28461 7.27917 1.56495 9.45095 1.30944C9.81578 1.26652 10.1844 1.26652 10.5492 1.30944C12.721 1.56495 14.4296 3.28461 14.6711 5.458L14.6938 5.66289C14.7343 6.02687 14.7343 6.39421 14.6938 6.75819L14.4129 9.28685C14.393 9.46555 14.2561 9.60786 14.08 9.64414C13.0844 9.84929 12.166 10.2659 11.3739 10.8448C11.2997 10.899 11.21 10.9281 11.1182 10.9256C9.55165 10.8828 7.9833 10.93 6.42085 11.0672L5.2864 11.1668C4.76167 11.2129 4.33698 11.6128 4.25942 12.1338C3.9272 14.3656 3.9272 16.6344 4.25942 18.8662C4.33698 19.3872 4.76167 19.7871 5.2864 19.8332L6.42085 19.9328C7.36691 20.0159 8.31513 20.066 9.26381 20.083C9.40274 20.0855 9.5301 20.1596 9.60517 20.2765C9.82391 20.6173 10.0714 20.9378 10.3442 21.2347C10.4655 21.3667 10.3771 21.5884 10.1979 21.5892C8.89395 21.5953 7.58982 21.5412 6.28964 21.4271L5.15519 21.3274C3.93943 21.2207 2.95546 20.2942 2.77577 19.0871C2.42175 16.7088 2.42175 14.2912 2.77577 11.9129C2.95546 10.7058 3.93943 9.77934 5.15519 9.67258L5.62554 9.63128ZM9.62621 2.79917C9.8746 2.76995 10.1256 2.76995 10.3739 2.79917C11.8526 2.97312 13.0158 4.14393 13.1802 5.62364L13.203 5.82854C13.2312 6.08242 13.2312 6.33865 13.203 6.59254L12.8791 9.50817C10.962 9.37775 9.0382 9.37775 7.12109 9.50817L6.79714 6.59254C6.76893 6.33865 6.76893 6.08242 6.79714 5.82854L6.8199 5.62364C6.98431 4.14393 8.14759 2.97312 9.62621 2.79917Z" />
<path d="M16.2501 15C16.2501 14.5858 15.9143 14.25 15.5001 14.25C15.0859 14.25 14.7501 14.5858 14.7501 15V16.7727C14.7501 17.0127 14.8649 17.2382 15.0589 17.3793L16.0589 18.1066C16.3939 18.3502 16.863 18.2761 17.1066 17.9411C17.3503 17.6062 17.2762 17.1371 16.9412 16.8935L16.2501 16.3908V15Z" />
<path fill-rule="evenodd" clip-rule="evenodd" d="M15.5001 22C18.5376 22 21.0001 19.5376 21.0001 16.5C21.0001 13.4624 18.5376 11 15.5001 11C12.4625 11 10.0001 13.4624 10.0001 16.5C10.0001 19.5376 12.4625 22 15.5001 22ZM15.5001 20.5C17.7092 20.5 19.5001 18.7092 19.5001 16.5C19.5001 14.2909 17.7092 12.5 15.5001 12.5C13.2909 12.5 11.5001 14.2909 11.5001 16.5C11.5001 18.7092 13.2909 20.5 15.5001 20.5Z" />
</svg>
