<svg width="24" height="24" viewBox="0 0 24 24" fill="black" xmlns="http://www.w3.org/2000/svg">
<path fill-rule="evenodd" clip-rule="evenodd" d="M16.7857 3.72499C15.9102 2.84954 14.4274 3.13511 13.9397 4.27307L12.3472 7.9891C10.8481 7.69513 9.233 8.12819 8.07009 9.29109L6.36 11.0012C6.06711 11.2941 6.06711 11.769 6.36 12.0618L8.85531 14.5572L3.46967 19.9428C3.17678 20.2357 3.17678 20.7106 3.46967 21.0035C3.76256 21.2963 4.23744 21.2963 4.53033 21.0035L9.91597 15.6178L12.4114 18.1132C12.552 18.2539 12.7428 18.3329 12.9417 18.3329C13.1406 18.3329 13.3314 18.2539 13.472 18.1132L15.1821 16.4031C16.345 15.2402 16.7781 13.6251 16.4841 12.126L20.2001 10.5334C21.3381 10.0457 21.6236 8.56295 20.7482 7.68751L16.7857 3.72499ZM15.3185 4.86394C15.3881 4.70138 15.6 4.66058 15.725 4.78565L19.6875 8.74817C19.8126 8.87323 19.7718 9.08506 19.6092 9.15473L15.2939 11.0042C14.9296 11.1603 14.7496 11.573 14.8832 11.9463C15.2942 13.0946 15.0389 14.425 14.1215 15.3425L12.9417 16.5222L7.95099 11.5315L9.13075 10.3518C10.0482 9.43434 11.3786 9.17897 12.5269 9.58997C12.9002 9.72356 13.3129 9.54364 13.469 9.17928L15.3185 4.86394Z" />
</svg>
