<svg width="24" height="24" viewBox="0 0 24 24" fill="black" xmlns="http://www.w3.org/2000/svg">
<path d="M11.4696 8.53033C11.6103 8.67098 11.801 8.75 11.9999 8.75C12.1989 8.75 12.3896 8.67098 12.5303 8.53033L13.5303 7.53033C13.7448 7.31583 13.8089 6.99324 13.6928 6.71299C13.5768 6.43273 13.3033 6.25 12.9999 6.25H10.9999C10.6966 6.25 10.4231 6.43273 10.307 6.71299C10.1909 6.99324 10.2551 7.31583 10.4696 7.53033L11.4696 8.53033Z" />
<path d="M11.4696 15.4697C11.6103 15.329 11.801 15.25 11.9999 15.25C12.1989 15.25 12.3896 15.329 12.5303 15.4697L13.5303 16.4697C13.7448 16.6842 13.8089 17.0068 13.6928 17.287C13.5768 17.5673 13.3033 17.75 12.9999 17.75H10.9999C10.6966 17.75 10.4231 17.5673 10.307 17.287C10.1909 17.0068 10.2551 16.6842 10.4696 16.4697L11.4696 15.4697Z" />
<path fill-rule="evenodd" clip-rule="evenodd" d="M13.149 12L13.3363 11.8386C15.3117 10.1366 16.9541 8.08279 18.1801 5.78147C18.6612 4.8784 18.0639 3.77732 17.0446 3.6882L15.8711 3.58559C13.2952 3.36038 10.7047 3.36039 8.12884 3.58559L6.9553 3.6882C5.93595 3.77732 5.33865 4.8784 5.81976 5.78148C7.04577 8.08279 8.6882 10.1366 10.6636 11.8386L10.8509 12L10.6636 12.1614C8.6882 13.8634 7.04577 15.9172 5.81976 18.2185C5.33865 19.1216 5.93595 20.2227 6.9553 20.3118L8.12884 20.4144C10.7047 20.6396 13.2952 20.6396 15.8711 20.4144L17.0446 20.3118C18.0639 20.2227 18.6612 19.1216 18.1801 18.2185C16.9541 15.9172 15.3117 13.8634 13.3363 12.1614L13.149 12ZM12.0036 11.0063C12.004 11.0061 12.0049 11.0058 12.0064 11.0044L12.3572 10.7022C14.1643 9.14525 15.6714 7.27129 16.8044 5.17292L15.7404 5.07989C13.2515 4.86229 10.7484 4.86229 8.25949 5.07989L7.19549 5.17292C8.32853 7.27129 9.83562 9.14525 11.6427 10.7022L11.9935 11.0044C11.9945 11.0053 11.9952 11.0057 11.9957 11.006C11.9959 11.0061 11.9955 11.0059 11.9957 11.006C11.9964 11.0063 11.9983 11.0068 11.9999 11.0068C12.0016 11.0068 12.0028 11.0065 12.0036 11.0063ZM12.0064 12.9956C12.0049 12.9942 12.004 12.9939 12.0036 12.9937C12.0032 12.9936 12.0028 12.9935 12.0022 12.9934C12.0016 12.9932 12.0008 12.9932 11.9999 12.9932C11.9983 12.9932 11.9971 12.9935 11.9963 12.9937C11.9959 12.9939 11.995 12.9942 11.9935 12.9956L11.6427 13.2978C9.83562 14.8547 8.32853 16.7287 7.19549 18.8271L8.25949 18.9201C10.7484 19.1377 13.2515 19.1377 15.7404 18.9201L16.8044 18.8271C15.6714 16.7287 14.1643 14.8547 12.3572 13.2978L12.0064 12.9956Z" />
</svg>
