<?xml version="1.0" encoding="UTF-8" standalone="no" ?>
<!DOCTYPE svg PUBLIC "-//W3C//DTD SVG 1.1//EN" "http://www.w3.org/Graphics/SVG/1.1/DTD/svg11.dtd">
<svg xmlns="http://www.w3.org/2000/svg" xmlns:xlink="http://www.w3.org/1999/xlink" version="1.1" width="24" height="24" viewBox="0 0 24 24" xml:space="preserve">
<g transform="matrix(1 0 0 1 12.01 12.07)" id="I9QH3i6ay_uFOnimztgW-"  >
<path style="stroke: none; stroke-width: 1; stroke-dasharray: none; stroke-linecap: butt; stroke-dashoffset: 0; stroke-linejoin: miter; stroke-miterlimit: 4; fill-rule: nonzero; opacity: 1;" vector-effect="non-scaling-stroke"  transform=" translate(-9.43, -8.82)" d="M 12.7538 5.17752 L 17.8859 5.9076200000000005 C 18.311 5.96616 18.66806 6.255450000000001 18.803829999999998 6.6515 C 18.9396 7.051 18.828809999999997 7.48493 18.52171 7.7811 L 14.80018 11.30075 L 15.67888 16.34947 C 15.75029 16.76281 15.575289999999999 17.18291 15.218079999999999 17.42742 C 14.864539999999998 17.671930000000003 14.39669 17.702930000000002 14.014499999999998 17.50662 L 9.42879 15.147660000000002 L 4.846629999999999 17.50662 C 4.460909999999999 17.702930000000002 3.9930599999999994 17.671930000000003 3.6394799999999994 17.42742 C 3.2859099999999994 17.18291 3.1073399999999993 16.76281 3.1823399999999995 16.34947 L 4.060919999999999 11.30075 L 0.3387599999999993 7.7811 C 0.03125999999999929 7.48493 -0.07803000000000071 7.051 0.0569699999999993 6.6515 C 0.1916099999999993 6.255450000000001 0.5476899999999993 5.96616 0.9758999999999993 5.9076200000000005 L 6.103789999999999 5.17752 L 8.403789999999999 0.6202100000000002 C 8.593079999999999 0.24083000000000016 8.993089999999999 1.1102230246251565e-16 9.42879 1.1102230246251565e-16 C 9.868079999999999 1.1102230246251565e-16 10.26808 0.2408300000000001 10.45737 0.6202100000000002 z" stroke-linecap="round" />
</g>
</svg>