<svg width="24" height="24" viewBox="0 0 24 24" fill="black" xmlns="http://www.w3.org/2000/svg">
<path d="M10.5001 16C10.5001 15.1716 11.1717 14.5 12.0001 14.5C12.8285 14.5 13.5001 15.1716 13.5001 16C13.5001 16.8284 12.8285 17.5 12.0001 17.5C11.1717 17.5 10.5001 16.8284 10.5001 16Z" />
<path fill-rule="evenodd" clip-rule="evenodd" d="M9.81058 4.00497C10.0429 3.91246 10.2853 3.8475 10.5328 3.81144C12.0061 3.59678 13.4328 4.42661 13.9745 5.81335L14.0496 6.00537C14.1425 6.2433 14.2088 6.4908 14.2473 6.74334L14.4639 8.16565L15.9468 7.9398L15.7302 6.51749C15.6751 6.15544 15.58 5.80062 15.4467 5.45951L15.3717 5.26749C14.5759 3.23066 12.4805 2.01182 10.3165 2.32712C9.95304 2.38008 9.59701 2.47548 9.25572 2.61137C7.22407 3.42026 6.01876 5.52354 6.34802 7.68538L6.37906 7.88919C6.4342 8.25123 6.52927 8.60605 6.66254 8.94716L7.31669 10.6215L6.93521 10.6519C5.85248 10.7384 4.96838 11.5523 4.79286 12.6242C4.42679 14.8598 4.42679 17.1401 4.79286 19.3758C4.96838 20.4477 5.85249 21.2616 6.93521 21.348L8.43134 21.4675C10.8067 21.6571 13.1935 21.6571 15.5688 21.4675L17.065 21.348C18.1477 21.2616 19.0318 20.4477 19.2073 19.3758C19.5734 17.1401 19.5734 14.8598 19.2073 12.6242C19.0318 11.5523 18.1477 10.7384 17.065 10.6519L15.5688 10.5325C13.3427 10.3548 11.1066 10.3436 8.87925 10.499L8.0597 8.4013C7.96674 8.16337 7.90042 7.91587 7.86196 7.66334L7.83092 7.45953C7.60675 5.98768 8.42736 4.55569 9.81058 4.00497ZM15.4495 12.0277C13.1535 11.8445 10.8466 11.8445 8.55071 12.0277L7.05458 12.1472C6.65965 12.1787 6.33717 12.4756 6.27315 12.8666C5.93336 14.9417 5.93336 17.0583 6.27315 19.1334C6.33717 19.5244 6.65965 19.8213 7.05458 19.8528L8.55071 19.9722C10.8466 20.1555 13.1535 20.1555 15.4495 19.9722L16.9456 19.8528C17.3405 19.8213 17.663 19.5244 17.727 19.1334C18.0668 17.0583 18.0668 14.9417 17.727 12.8666C17.663 12.4756 17.3405 12.1787 16.9456 12.1472L15.4495 12.0277Z" />
</svg>
