<svg width="17" height="25" viewBox="0 0 17 25" fill="none" xmlns="http://www.w3.org/2000/svg">
<path d="M3.44175 5.34885H12.5115C14.0231 5.34885 15.1859 6.51164 15.1859 8.02327V17.093C15.1859 18.6047 14.0231 19.7675 12.5115 19.7675H3.44175C1.93012 19.7675 0.767334 18.6047 0.767334 17.093V8.02327C0.767334 6.51164 1.93012 5.34885 3.44175 5.34885Z" stroke="#231F20" stroke-miterlimit="10"/>
<path d="M5.30229 0.58139H10.6511C11.5814 0.58139 12.3953 1.27906 12.3953 2.2093C12.3953 2.2093 12.3953 2.2093 12.3953 2.32558V5.34883H3.55811V2.32558C3.55811 1.39534 4.37206 0.58139 5.30229 0.58139Z" stroke="#231F20" stroke-miterlimit="10"/>
<path d="M10.6511 24.4186H5.30229C4.37206 24.4186 3.55811 23.6046 3.55811 22.6744V19.7674H12.3953V22.6744C12.3953 23.7209 11.5814 24.4186 10.6511 24.4186Z" stroke="#231F20" stroke-miterlimit="10"/>
<path d="M16.1162 8.95349H15.3022V10.9302H16.1162V8.95349Z" stroke="#231F20" stroke-width="1.17" stroke-linecap="round" stroke-linejoin="round"/>
</svg>
