<svg width="24" height="24" viewBox="0 0 24 24" fill="black" xmlns="http://www.w3.org/2000/svg">
<path d="M18.955 2.04511C19.2479 2.338 19.2479 2.81288 18.955 3.10577L18.4046 3.65622C21.6936 7.4873 21.5235 13.2652 17.8944 16.8944C16.1814 18.6073 13.9897 19.5496 11.7501 19.7214V21.2501H13.5001C13.9143 21.2501 14.2501 21.5858 14.2501 22.0001C14.2501 22.4143 13.9143 22.7501 13.5001 22.7501H8.50006C8.08585 22.7501 7.75006 22.4143 7.75006 22.0001C7.75006 21.5858 8.08585 21.2501 8.50006 21.2501H10.2501V19.7213C8.24379 19.5674 6.276 18.7952 4.65622 17.4046L4.10577 17.955C3.81288 18.2479 3.338 18.2479 3.04511 17.955C2.75222 17.6621 2.75222 17.1872 3.04511 16.8944L3.75222 16.1872C4.24765 15.6918 5.01752 15.7171 5.49984 16.1494C7.0618 17.5492 9.02928 18.2494 10.997 18.2501L11.0001 18.2501L11.0033 18.2501C13.1136 18.2492 15.2237 17.4437 16.8337 15.8337C19.9466 12.7208 20.0519 7.73859 17.1494 4.49983C16.7171 4.01752 16.6918 3.24765 17.1872 2.75222L17.8944 2.04511C18.1872 1.75222 18.6621 1.75222 18.955 2.04511Z" />
<path fill-rule="evenodd" clip-rule="evenodd" d="M4.25006 10.0001C4.25006 6.27214 7.27214 3.25006 11.0001 3.25006C14.728 3.25006 17.7501 6.27214 17.7501 10.0001C17.7501 13.728 14.728 16.7501 11.0001 16.7501C7.27214 16.7501 4.25006 13.728 4.25006 10.0001ZM11.0001 4.75006C8.10057 4.75006 5.75006 7.10057 5.75006 10.0001C5.75006 10.3349 5.78141 10.6624 5.84132 10.9798C6.25264 10.5313 6.84351 10.2501 7.50006 10.2501C8.7427 10.2501 9.75006 11.2574 9.75006 12.5001C9.75006 13.4224 9.19507 14.2151 8.40082 14.5625C9.16718 15 10.0544 15.2501 11.0001 15.2501C13.5434 15.2501 15.6644 13.4415 16.147 11.0403C15.4784 12.0694 14.3187 12.7501 13.0001 12.7501C10.929 12.7501 9.25006 11.0711 9.25006 9.00006C9.25006 6.92899 10.929 5.25006 13.0001 5.25006C13.0865 5.25006 13.1723 5.25299 13.2573 5.25875C12.5735 4.93262 11.8081 4.75006 11.0001 4.75006ZM10.7501 9.00006C10.7501 7.75742 11.7574 6.75006 13.0001 6.75006C14.2427 6.75006 15.2501 7.75742 15.2501 9.00006C15.2501 10.2427 14.2427 11.2501 13.0001 11.2501C11.7574 11.2501 10.7501 10.2427 10.7501 9.00006ZM7.50006 11.7501C7.08585 11.7501 6.75006 12.0858 6.75006 12.5001C6.75006 12.9143 7.08585 13.2501 7.50006 13.2501C7.91427 13.2501 8.25006 12.9143 8.25006 12.5001C8.25006 12.0858 7.91427 11.7501 7.50006 11.7501Z" />
</svg>
