<svg width="21" height="25" viewBox="0 0 21 25" fill="black" xmlns="http://www.w3.org/2000/svg">
<path fill="none" d="M8.95139 24.4469H7.8452C7.18148 24.4469 6.62839 23.8938 6.62839 23.2301V12.8318C6.07529 13.0531 5.52219 13.2743 4.96909 13.1637C3.19918 13.1637 1.53989 11.5044 1.20803 11.1725C1.09741 11.1725 1.09741 11.0619 1.09741 10.9513V7.41148C1.09741 7.30086 1.09741 7.19024 1.20803 7.07962C2.09299 5.97343 3.53104 5.19909 4.96909 5.08847C6.07529 4.97785 7.07086 5.42033 7.8452 6.08405C9.50449 7.5221 10.0576 11.5044 10.0576 12.1681C10.0576 12.8318 10.0576 19.2478 10.1682 22.3451V23.2301C10.1682 23.8938 9.61511 24.4469 8.95139 24.4469Z" stroke="currentColor" stroke-linecap="round" stroke-linejoin="round"/>
<path fill="none" d="M14.2612 19.8008H13.155C12.4913 19.8008 11.9382 19.2477 11.9382 18.584C11.9382 15.376 11.9382 7.74327 12.1595 6.85831C13.8188 0.553002 16.9161 0.442383 17.0267 0.442383C17.3586 0.442383 20.1241 0.553002 20.1241 4.31406C20.1241 7.41141 18.5754 8.5176 17.248 8.5176C16.5842 8.40698 16.0312 8.18575 15.5887 7.74327V18.4734C15.4781 19.2477 14.925 19.8008 14.2612 19.8008Z" stroke="currentColor" stroke-linecap="round" stroke-linejoin="round"/>
<path fill="currentColor" d="M16.916 2.98657H17.2478C17.5797 2.98657 17.9115 3.31843 17.9115 3.65029V5.30958C17.9115 5.75206 17.5797 6.08392 17.1372 6.08392H16.8053C16.3629 6.08392 16.031 5.75206 16.031 5.30958V3.65029C16.1416 3.31843 16.4735 2.98657 16.916 2.98657Z" />
</svg>
