<svg width="25" height="15" viewBox="0 0 25 15" fill="black" xmlns="http://www.w3.org/2000/svg">
<path fill="currentColor" d="M25.0001 14.4446C25.0001 14.4446 24.9159 14.4446 25.0001 14.4446C24.9159 14.5288 24.9159 14.5288 24.9159 14.5288C24.1583 14.6971 23.4849 14.7813 22.7273 14.8655C18.6869 14.9496 6.31318 14.9496 2.35696 14.8655C1.59938 14.8655 0.841804 14.6971 0.168404 14.5288C0.168404 14.5288 0.0842285 14.5288 0.0842285 14.4446V13.7712C0.0842285 13.7712 0.0842285 13.687 0.168404 13.687H25.0001C25.0842 13.687 25.0842 13.687 25.0842 13.7712V14.4446H25.0001Z" />
<path fill="currentColor" d="M22.3905 0.976516C22.4747 0.976516 22.6431 1.06069 22.6431 1.22904V13.2661H2.69356V1.22904C2.69356 1.14487 2.77773 0.976516 2.94608 0.976516H22.3905ZM22.3905 0.134766H2.94608C2.35686 0.134766 1.85181 0.639816 1.85181 1.22904V14.192H23.569V1.22904C23.569 0.639816 23.0639 0.134766 22.3905 0.134766C22.4747 0.134766 22.3905 0.134766 22.3905 0.134766Z" />
<path d="M8.41748 13.8552H16.5825V14.1078C16.5825 14.1919 16.4983 14.2761 16.4141 14.2761H8.58583C8.50166 14.2761 8.41748 14.1919 8.41748 14.1078V13.8552Z" />
</svg>
