<svg width="25" height="25" viewBox="0 0 25 25" fill="none" xmlns="http://www.w3.org/2000/svg">
<path d="M20.4733 0.79364H4.5268C2.46507 0.79364 0.793701 2.46501 0.793701 4.52674V20.4732C0.793701 22.535 2.46507 24.2063 4.5268 24.2063H20.4733C22.535 24.2063 24.2064 22.535 24.2064 20.4732V4.52674C24.2064 2.46501 22.535 0.79364 20.4733 0.79364Z" stroke="#231F20" stroke-width="1.07" stroke-miterlimit="10"/>
<path d="M4.55615 12.8013H9.95004" stroke="#231F20" stroke-miterlimit="10" stroke-linecap="round"/>
<path d="M4.55615 16.0787H9.95004" stroke="#231F20" stroke-miterlimit="10" stroke-linecap="round"/>
<path d="M4.55615 19.371H9.95004" stroke="#231F20" stroke-miterlimit="10" stroke-linecap="round"/>
<path d="M19.8561 10.9494H13.5657C12.754 10.9494 12.0959 11.6074 12.0959 12.4191V20.0323C12.0959 20.844 12.754 21.502 13.5657 21.502H19.8561C20.6678 21.502 21.3258 20.844 21.3258 20.0323V12.4191C21.3258 11.6074 20.6678 10.9494 19.8561 10.9494Z" fill="#231F20"/>
<path d="M6.7166 8.59789H5.87885L4.67368 6.4521V8.59789H3.83594V5.14404H4.67368L5.87885 7.34863V5.14404H6.7019L6.7166 8.59789Z" fill="black"/>
<path d="M10.8467 7.12817H9.53867V7.95122H11.0084V8.59789H8.70093V5.14404H11.0819V5.79072H9.61216V6.51089H10.9202L10.8467 7.12817Z" fill="black"/>
<path d="M15.5497 7.34863L15.9318 5.18813H16.7695L16.0347 8.64199H15.1675L14.6972 6.62846L14.2563 8.59789H13.3892L12.6543 5.14404H13.492L13.8889 7.34863L14.3592 5.14404H15.0646L15.5497 7.34863Z" fill="black"/>
<path d="M20.3264 7.67193C20.3376 7.61103 20.3311 7.54818 20.3077 7.49086C20.2842 7.43354 20.2448 7.38416 20.1941 7.34859C20.0583 7.24891 19.9031 7.17882 19.7385 7.14283C19.5559 7.0853 19.3788 7.01152 19.2094 6.92237C19.0209 6.85613 18.8562 6.73571 18.7359 6.57622C18.6157 6.41672 18.5452 6.22525 18.5333 6.02584C18.5309 5.83915 18.5933 5.65739 18.7097 5.51144C18.8277 5.3528 18.992 5.23469 19.18 5.1734C19.3996 5.0868 19.6349 5.04676 19.8708 5.05582C20.0981 5.05292 20.3234 5.098 20.5321 5.1881C20.7164 5.26388 20.8747 5.39152 20.9878 5.55553C21.0984 5.72037 21.1549 5.91558 21.1494 6.11402H20.3264C20.3089 6.02338 20.2625 5.94086 20.1941 5.87887C20.0946 5.79829 19.9693 5.75652 19.8414 5.76129C19.7162 5.75989 19.5934 5.7957 19.4886 5.86417C19.4501 5.893 19.4192 5.93086 19.3987 5.97443C19.3782 6.018 19.3687 6.06593 19.3711 6.11402C19.3714 6.1612 19.3838 6.20751 19.4069 6.24863C19.43 6.28976 19.4632 6.32435 19.5033 6.34918C19.6599 6.44729 19.8277 6.52624 20.003 6.58433C20.2069 6.64132 20.404 6.72017 20.5909 6.81949C20.7596 6.90045 20.9016 7.02776 21.0006 7.18654C21.0995 7.34531 21.1511 7.52897 21.1494 7.71602C21.1523 7.85187 21.1232 7.9865 21.0645 8.10904C21.0058 8.23158 20.9191 8.33861 20.8114 8.42149C20.5372 8.61437 20.2053 8.70771 19.8708 8.68604C19.6036 8.67675 19.3422 8.60636 19.1065 8.48028C18.8951 8.40224 18.7146 8.25787 18.5921 8.06875C18.4711 7.89161 18.4093 7.68063 18.4157 7.46617H19.2535C19.2452 7.54141 19.2541 7.61756 19.2796 7.68885C19.3051 7.76014 19.3464 7.82471 19.4005 7.87769C19.5301 7.97791 19.6929 8.02519 19.8561 8.00997C19.9752 8.01646 20.0933 7.98563 20.1941 7.92178C20.2345 7.89368 20.2675 7.85635 20.2905 7.81289C20.3135 7.76943 20.3258 7.7211 20.3264 7.67193Z" fill="black"/>
</svg>
