<svg width="25" height="23" viewBox="0 0 25 23" fill="none" xmlns="http://www.w3.org/2000/svg">
<path d="M16.3899 18.112C18.457 17.1233 18.5501 13.0133 16.598 8.93221C14.6459 4.85108 11.3877 2.3442 9.32064 3.33293C7.25357 4.32167 7.16039 8.43161 9.11251 12.5127C11.0646 16.5939 14.3228 19.1008 16.3899 18.112Z" stroke="#231F20" stroke-width="1.07" stroke-miterlimit="10"/>
<path d="M7.8724 5.48935L3.82985 11.8723C3.5107 12.4042 3.40431 13.1489 3.72346 13.7872L5.31921 16.7659C5.63836 17.4042 6.17027 17.7234 6.91495 17.7234L14.4681 18.1489" stroke="#231F20" stroke-width="1.07" stroke-miterlimit="10"/>
<path d="M5.85112 17.617L4.36175 18.3617C3.08516 19 1.5958 18.5745 0.851115 17.2979C0.212817 16.0213 0.638349 14.5319 1.91494 13.7872L3.40431 13.0425" stroke="#231F20" stroke-width="1.07" stroke-miterlimit="10"/>
<path d="M6.91488 17.8298L8.29786 20.0638C8.72339 20.8085 8.40424 21.7659 7.55318 22.1915C6.8085 22.617 5.85105 22.2979 5.42552 21.5532V21.4468L4.14893 18.5745" stroke="#231F20" stroke-width="1.07" stroke-miterlimit="10"/>
<path d="M10.4255 8.99998C11.5957 8.2553 13.1915 8.57445 13.9362 9.85105V9.95743C14.6809 11.1276 14.3617 12.7234 13.0851 13.4681" stroke="#231F20" stroke-width="1.07" stroke-miterlimit="10" stroke-linecap="round"/>
<path d="M16.2766 2.72339L17.4468 0.702118" stroke="#231F20" stroke-width="1.07" stroke-miterlimit="10" stroke-linecap="round"/>
<path d="M20.7446 7.08509L24.3616 5.27658" stroke="#231F20" stroke-width="1.07" stroke-miterlimit="10" stroke-linecap="round"/>
<path d="M21.915 12.8298L24.3618 13.2553" stroke="#231F20" stroke-width="1.07" stroke-miterlimit="10" stroke-linecap="round"/>
</svg>
