<svg width="25" height="23" viewBox="0 0 25 23" fill="none" xmlns="http://www.w3.org/2000/svg">
<path d="M8.29071 0.785736H16.7091C17.7295 0.785736 18.6223 1.67859 18.6223 2.699V20.4286C18.6223 21.449 17.7295 22.3419 16.7091 22.3419H8.29071C7.2703 22.3419 6.37744 21.449 6.37744 20.4286V2.699C6.37744 1.67859 7.2703 0.785736 8.29071 0.785736Z" stroke="#231F20" stroke-width="1.07" stroke-linecap="round" stroke-linejoin="round"/>
<path d="M12.5001 2.44389H10.3317C10.0766 2.44389 9.82153 2.18878 9.82153 1.93368V0.658173H15.6889V1.93368C15.6889 2.18878 15.4338 2.44389 15.1787 2.57144L12.5001 2.44389Z" fill="#231F20"/>
<path d="M1.91322 9.84186C1.27547 11.8827 1.91322 14.1786 3.57139 15.4541" stroke="#231F20" stroke-width="1.07" stroke-linecap="round" stroke-linejoin="round"/>
<path d="M0 9.33163L3.57143 7.41837L3.44388 11.5L0 9.33163Z" fill="#231F20"/>
<path d="M23.0866 12.9031C23.7244 10.8623 23.0866 8.69389 21.4285 7.29083" stroke="#231F20" stroke-width="1.07" stroke-linecap="round" stroke-linejoin="round"/>
<path d="M25 13.5408L21.301 15.3265L21.5561 11.2449L25 13.5408Z" fill="#231F20"/>
</svg>
