<svg width="21" height="25" viewBox="0 0 21 25" fill="none" xmlns="http://www.w3.org/2000/svg">
<path d="M6.63868 19.7644H3.10465C2.18842 19.7644 1.40308 18.9791 1.40308 18.0628V2.35602C1.40308 1.43979 2.18842 0.654449 3.10465 0.654449H10.6963C11.6125 0.654449 12.3978 1.43979 12.3978 2.35602V9.42408" stroke="#231F20" stroke-linecap="round" stroke-linejoin="round"/>
<path d="M13.9685 10.6021C17.5025 10.6021 20.2512 13.4817 20.2512 16.8848C20.2512 20.4188 17.3717 23.1675 13.9685 23.1675C10.4345 23.1675 7.68579 20.2879 7.68579 16.8848C7.68579 13.3508 10.5654 10.6021 13.9685 10.6021Z" fill="#231F20"/>
<path d="M14.2302 6.15184C15.9318 6.02095 17.5025 6.93718 18.4187 8.37697" stroke="#231F20" stroke-linecap="round" stroke-linejoin="round"/>
<path d="M16.5864 8.37695L18.9424 10.6021L19.5969 7.32983L16.5864 8.37695Z" fill="#231F20"/>
<path d="M9.12562 24.0838C8.73295 24.2147 8.34028 24.3456 7.94761 24.3456C6.6387 24.4764 5.46069 24.0838 4.41357 23.2984" stroke="#231F20" stroke-linecap="round" stroke-linejoin="round"/>
<path d="M6.11521 22.644L3.10474 21.3351L3.49741 24.6073L6.11521 22.644Z" fill="#231F20"/>
<path d="M3.75903 0.654449H9.91087V1.96335C9.91087 2.22513 9.64909 2.6178 9.3873 2.6178H9.25642H4.41348C4.02081 2.6178 3.75903 2.35602 3.75903 2.09424V0.654449Z" fill="#231F20"/>
<path d="M15.0156 18.4555C15.0156 18.1937 14.8847 18.0628 14.7538 17.801C14.4921 17.6701 14.2303 17.4084 13.9685 17.4084C13.7067 17.2775 13.4449 17.1466 13.1832 17.0157C12.5287 16.7539 12.136 16.0995 12.136 15.445C12.136 15.0523 12.2669 14.5288 12.5287 14.267C12.7905 14.0052 13.3141 13.7434 13.7067 13.7434V12.6963H14.3612V13.6125C14.7538 13.6125 15.2774 13.8743 15.5392 14.267C15.801 14.6597 15.9319 15.1832 15.9319 15.7068H15.0156C15.0156 15.445 14.8847 15.0523 14.7538 14.7906C14.623 14.5288 14.3612 14.5288 14.0994 14.5288C13.8376 14.5288 13.5758 14.6597 13.4449 14.7906C13.3141 14.9215 13.1832 15.1832 13.1832 15.445C13.1832 15.7068 13.3141 15.8377 13.4449 16.0995C13.7067 16.2304 13.9685 16.4921 14.2303 16.4921C14.4921 16.623 14.7538 16.7539 15.1465 16.8848C15.2774 17.0157 15.5392 17.1466 15.6701 17.2775C15.801 17.4084 15.9319 17.6701 16.0627 17.801C16.1936 18.0628 16.1936 18.1937 16.1936 18.4555C16.1936 18.8482 16.0627 19.3717 15.801 19.6335C15.4083 20.0262 15.0156 20.1571 14.4921 20.1571V20.9424H13.7067V20.1571C12.6596 20.1571 11.8743 19.2408 11.8743 18.1937H12.9214C12.9214 18.4555 13.0523 18.8482 13.1832 18.979C13.4449 19.2408 13.7067 19.2408 13.9685 19.2408C14.2303 19.2408 14.4921 19.1099 14.7538 18.979C14.8847 18.8482 15.0156 18.5864 15.0156 18.4555Z" fill="#F5F8FD"/>
</svg>
