<svg width="25" height="25" viewBox="0 0 25 25" fill="none" xmlns="http://www.w3.org/2000/svg">
<path d="M18.268 15.8801C18.268 12.6905 15.6823 10.1049 12.4928 10.1049C9.30319 10.1049 6.71753 12.6905 6.71753 15.8801C6.71753 19.0697 9.30319 21.6553 12.4928 21.6553C15.6823 21.6553 18.268 19.0697 18.268 15.8801Z" fill="#231F20"/>
<path d="M23.7669 11.0969C23.6797 10.991 23.585 10.8915 23.4834 10.7993L14.484 1.78572C14.0531 1.26711 13.4749 0.891517 12.8258 0.708618H12.1739C11.5249 0.891517 10.9467 1.26711 10.5158 1.78572C7.61515 4.70522 4.70037 7.61999 1.77142 10.53C1.25975 10.9586 0.889301 11.5316 0.708496 12.174V12.826C0.776207 13.0524 0.856645 13.2747 0.949426 13.4921C1.12327 13.8439 1.39172 14.1404 1.72467 14.3482C2.05762 14.5559 2.44189 14.6668 2.83435 14.6684H3.17448V21.5845C3.15599 21.9423 3.21308 22.3 3.34206 22.6344C3.47103 22.9687 3.66898 23.272 3.92302 23.5247C4.17706 23.7775 4.48149 23.9738 4.81648 24.101C5.15146 24.2282 5.50948 24.2834 5.86723 24.263H19.0617C19.4116 24.277 19.7606 24.2184 20.0867 24.0909C20.4129 23.9633 20.7091 23.7697 20.9567 23.522C21.2043 23.2744 21.398 22.9782 21.5255 22.6521C21.6531 22.3259 21.7117 21.9769 21.6977 21.627C21.6977 19.4019 21.6977 17.1769 21.6977 14.9518V14.6684C21.9528 14.6684 22.2079 14.6684 22.4489 14.6684C22.8368 14.6162 23.2031 14.4593 23.5086 14.2145C23.814 13.9698 24.047 13.6464 24.1825 13.2793C24.318 12.9121 24.3509 12.5149 24.2777 12.1304C24.2045 11.7459 24.0279 11.3886 23.7669 11.0969Z" stroke="#231F20" stroke-linecap="round" stroke-linejoin="round"/>
<path d="M15.6886 15.292C14.8024 14.5343 13.6651 14.135 12.4998 14.1724C11.3208 14.1226 10.1697 14.5402 9.29688 15.3345" stroke="white" stroke-width="0.8" stroke-linecap="round" stroke-linejoin="round"/>
<path d="M14.4274 16.7942C13.905 16.3077 13.2137 16.0434 12.4999 16.0573C12.1453 16.0408 11.791 16.0978 11.4593 16.2246C11.1277 16.3514 10.8258 16.5453 10.5725 16.7942" stroke="white" stroke-width="0.8" stroke-linecap="round" stroke-linejoin="round"/>
<path d="M12.4999 18.5374C12.6095 18.5374 12.6983 18.4486 12.6983 18.339C12.6983 18.2294 12.6095 18.1406 12.4999 18.1406C12.3903 18.1406 12.3015 18.2294 12.3015 18.339C12.3015 18.4486 12.3903 18.5374 12.4999 18.5374Z" stroke="white" stroke-width="0.8" stroke-linecap="round" stroke-linejoin="round"/>
</svg>
