<svg width="11" height="25" viewBox="0 0 11 25" fill="none" xmlns="http://www.w3.org/2000/svg">
<path d="M0.523193 7.17591V17.3611C0.523193 18.5185 1.44912 19.5602 2.72227 19.5602H8.27782C9.43523 19.5602 10.4769 18.6342 10.4769 17.3611V7.17591C10.4769 6.94443 10.2454 6.71295 10.0139 6.71295H0.986156C0.754675 6.71295 0.523193 6.94443 0.523193 7.17591Z" stroke="#231F20" stroke-linecap="round" stroke-linejoin="round"/>
<path d="M4.11108 25H6.88886V19.4444H4.11108V25Z" fill="#231F20"/>
<path d="M2.49072 1.38888V6.71295H8.62498V1.38888C8.62498 0.925915 8.27776 0.462952 7.69906 0.462952H3.41665C2.83795 0.462952 2.49072 0.810174 2.49072 1.38888Z" stroke="#231F20" stroke-width="0.8" stroke-linecap="round" stroke-linejoin="round"/>
<path d="M3.99538 3.70368C3.87964 3.70368 3.87964 3.58794 3.87964 3.4722V1.73609C3.87964 1.62035 3.99538 1.50461 4.11112 1.50461C4.22686 1.50461 4.3426 1.62035 4.3426 1.73609V3.4722C4.22686 3.58794 4.11112 3.70368 3.99538 3.70368Z" fill="#231F20"/>
<path d="M5.03715 3.70368C4.9214 3.70368 4.80566 3.58794 4.80566 3.4722V1.73609C4.80566 1.62035 4.9214 1.50461 5.03715 1.50461C5.15289 1.50461 5.26863 1.62035 5.26863 1.73609V3.4722C5.26863 3.58794 5.15289 3.70368 5.03715 3.70368Z" fill="#231F20"/>
<path d="M5.96293 3.70368C5.84719 3.70368 5.73145 3.58794 5.73145 3.4722V1.73609C5.73145 1.62035 5.84719 1.50461 5.96293 1.50461C6.07867 1.50461 6.19441 1.62035 6.19441 1.73609V3.4722C6.19441 3.58794 6.07867 3.70368 5.96293 3.70368Z" fill="#231F20"/>
<path d="M7.00468 3.70368C6.88893 3.70368 6.77319 3.58794 6.77319 3.4722V1.73609C6.77319 1.62035 6.88893 1.50461 7.00468 1.50461C7.12042 1.50461 7.23616 1.62035 7.23616 1.73609V3.4722C7.23616 3.58794 7.12042 3.70368 7.00468 3.70368Z" fill="#231F20"/>
</svg>
