<svg width="24" height="24" viewBox="0 0 24 24" fill="black" xmlns="http://www.w3.org/2000/svg">
<path fill-rule="evenodd" clip-rule="evenodd" d="M6.06662 3.8739C5.36393 3.79537 4.63594 3.79537 3.93325 3.8739C3.9202 3.87536 3.90729 3.88127 3.89668 3.89173C3.88631 3.90195 3.88227 3.91228 3.88124 3.92104C3.7974 4.63792 3.7974 5.36212 3.88124 6.07899C3.88227 6.08776 3.88631 6.09809 3.89668 6.1083C3.90729 6.11876 3.9202 6.12467 3.93325 6.12613C4.63594 6.20466 5.36393 6.20466 6.06662 6.12613C6.07967 6.12467 6.09258 6.11876 6.10319 6.1083C6.11356 6.09809 6.1176 6.08776 6.11863 6.07899C6.20247 5.36212 6.20247 4.63792 6.11863 3.92104C6.1176 3.91228 6.11356 3.90195 6.10319 3.89173C6.09258 3.88127 6.07967 3.87536 6.06662 3.8739ZM3.76664 2.38319C4.58006 2.29227 5.41981 2.29227 6.23323 2.38319C6.94555 2.4628 7.52384 3.02323 7.60847 3.74679C7.70586 4.57944 7.70586 5.4206 7.60847 6.25324C7.52384 6.9768 6.94555 7.53724 6.23323 7.61685C5.41981 7.70776 4.58006 7.70776 3.76664 7.61685C3.05432 7.53724 2.47603 6.9768 2.3914 6.25324C2.29401 5.4206 2.29401 4.57944 2.3914 3.74679C2.47603 3.02323 3.05432 2.4628 3.76664 2.38319Z" />
<path fill-rule="evenodd" clip-rule="evenodd" d="M13.0666 3.8739C12.3639 3.79537 11.6359 3.79537 10.9333 3.8739C10.9202 3.87536 10.9073 3.88127 10.8967 3.89173C10.8863 3.90195 10.8823 3.91228 10.8812 3.92104C10.7974 4.63792 10.7974 5.36212 10.8812 6.07899C10.8823 6.08776 10.8863 6.09809 10.8967 6.1083C10.9073 6.11876 10.9202 6.12467 10.9333 6.12613C11.6359 6.20466 12.3639 6.20466 13.0666 6.12613C13.0797 6.12467 13.0926 6.11876 13.1032 6.1083C13.1136 6.09809 13.1176 6.08776 13.1186 6.07899C13.2025 5.36212 13.2025 4.63792 13.1186 3.92104C13.1176 3.91228 13.1136 3.90195 13.1032 3.89173C13.0926 3.88127 13.0797 3.87536 13.0666 3.8739ZM10.7666 2.38319C11.5801 2.29227 12.4198 2.29227 13.2332 2.38319C13.9456 2.4628 14.5238 3.02323 14.6085 3.74679C14.7059 4.57944 14.7059 5.4206 14.6085 6.25324C14.5238 6.9768 13.9456 7.53724 13.2332 7.61685C12.4198 7.70776 11.5801 7.70776 10.7666 7.61685C10.0543 7.53724 9.47603 6.9768 9.3914 6.25324C9.29401 5.4206 9.29401 4.57944 9.3914 3.74679C9.47603 3.02323 10.0543 2.4628 10.7666 2.38319Z" />
<path fill-rule="evenodd" clip-rule="evenodd" d="M20.0666 3.8739C19.3639 3.79537 18.6359 3.79537 17.9333 3.8739C17.9202 3.87536 17.9073 3.88127 17.8967 3.89173C17.8863 3.90195 17.8823 3.91228 17.8812 3.92104C17.7974 4.63792 17.7974 5.36212 17.8812 6.07899C17.8823 6.08776 17.8863 6.09809 17.8967 6.1083C17.9073 6.11876 17.9202 6.12467 17.9333 6.12613C18.6359 6.20466 19.3639 6.20466 20.0666 6.12613C20.0797 6.12467 20.0926 6.11876 20.1032 6.1083C20.1136 6.09809 20.1176 6.08776 20.1186 6.07899C20.2025 5.36212 20.2025 4.63792 20.1186 3.92104C20.1176 3.91228 20.1136 3.90195 20.1032 3.89173C20.0926 3.88127 20.0797 3.87536 20.0666 3.8739ZM17.7666 2.38319C18.5801 2.29227 19.4198 2.29227 20.2332 2.38319C20.9456 2.4628 21.5238 3.02323 21.6085 3.74679C21.7059 4.57944 21.7059 5.4206 21.6085 6.25324C21.5238 6.9768 20.9456 7.53724 20.2332 7.61685C19.4198 7.70776 18.5801 7.70776 17.7666 7.61685C17.0543 7.53724 16.476 6.9768 16.3914 6.25324C16.294 5.4206 16.294 4.57944 16.3914 3.74679C16.476 3.02323 17.0543 2.4628 17.7666 2.38319Z" />
<path fill-rule="evenodd" clip-rule="evenodd" d="M6.06662 10.8739C5.36393 10.7954 4.63594 10.7954 3.93325 10.8739C3.9202 10.8754 3.90729 10.8813 3.89668 10.8917C3.88631 10.9019 3.88227 10.9123 3.88124 10.921C3.7974 11.6379 3.7974 12.3621 3.88124 13.079C3.88227 13.0878 3.88631 13.0981 3.89668 13.1083C3.90729 13.1188 3.9202 13.1247 3.93325 13.1261C4.63594 13.2047 5.36393 13.2047 6.06662 13.1261C6.07967 13.1247 6.09258 13.1188 6.10319 13.1083C6.11356 13.0981 6.1176 13.0878 6.11863 13.079C6.20247 12.3621 6.20247 11.6379 6.11863 10.921C6.1176 10.9123 6.11356 10.9019 6.10319 10.8917C6.09258 10.8813 6.07967 10.8754 6.06662 10.8739ZM3.76664 9.38318C4.58006 9.29227 5.41981 9.29227 6.23323 9.38318C6.94555 9.4628 7.52384 10.0232 7.60847 10.7468C7.70586 11.5794 7.70586 12.4206 7.60847 13.2532C7.52384 13.9768 6.94555 14.5372 6.23323 14.6168C5.41981 14.7078 4.58006 14.7078 3.76664 14.6168C3.05432 14.5372 2.47603 13.9768 2.3914 13.2532C2.29401 12.4206 2.29401 11.5794 2.3914 10.7468C2.47603 10.0232 3.05432 9.4628 3.76664 9.38318Z" />
<path fill-rule="evenodd" clip-rule="evenodd" d="M13.0666 10.8739C12.3639 10.7954 11.6359 10.7954 10.9333 10.8739C10.9202 10.8754 10.9073 10.8813 10.8967 10.8917C10.8863 10.9019 10.8823 10.9123 10.8812 10.921C10.7974 11.6379 10.7974 12.3621 10.8812 13.079C10.8823 13.0878 10.8863 13.0981 10.8967 13.1083C10.9073 13.1188 10.9202 13.1247 10.9333 13.1261C11.6359 13.2047 12.3639 13.2047 13.0666 13.1261C13.0797 13.1247 13.0926 13.1188 13.1032 13.1083C13.1136 13.0981 13.1176 13.0878 13.1186 13.079C13.2025 12.3621 13.2025 11.6379 13.1186 10.921C13.1176 10.9123 13.1136 10.9019 13.1032 10.8917C13.0926 10.8813 13.0797 10.8754 13.0666 10.8739ZM10.7666 9.38318C11.5801 9.29227 12.4198 9.29227 13.2332 9.38318C13.9456 9.4628 14.5238 10.0232 14.6085 10.7468C14.7059 11.5794 14.7059 12.4206 14.6085 13.2532C14.5238 13.9768 13.9456 14.5372 13.2332 14.6168C12.4198 14.7078 11.5801 14.7078 10.7666 14.6168C10.0543 14.5372 9.47603 13.9768 9.3914 13.2532C9.29401 12.4206 9.29401 11.5794 9.3914 10.7468C9.47603 10.0232 10.0543 9.4628 10.7666 9.38318Z" />
<path fill-rule="evenodd" clip-rule="evenodd" d="M20.0666 10.8739C19.3639 10.7954 18.6359 10.7954 17.9333 10.8739C17.9202 10.8754 17.9073 10.8813 17.8967 10.8917C17.8863 10.9019 17.8823 10.9123 17.8812 10.921C17.7974 11.6379 17.7974 12.3621 17.8812 13.079C17.8823 13.0878 17.8863 13.0981 17.8967 13.1083C17.9073 13.1188 17.9202 13.1247 17.9333 13.1261C18.6359 13.2047 19.3639 13.2047 20.0666 13.1261C20.0797 13.1247 20.0926 13.1188 20.1032 13.1083C20.1136 13.0981 20.1176 13.0878 20.1186 13.079C20.2025 12.3621 20.2025 11.6379 20.1186 10.921C20.1176 10.9123 20.1136 10.9019 20.1032 10.8917C20.0926 10.8813 20.0797 10.8754 20.0666 10.8739ZM17.7666 9.38318C18.5801 9.29227 19.4198 9.29227 20.2332 9.38318C20.9456 9.4628 21.5238 10.0232 21.6085 10.7468C21.7059 11.5794 21.7059 12.4206 21.6085 13.2532C21.5238 13.9768 20.9456 14.5372 20.2332 14.6168C19.4198 14.7078 18.5801 14.7078 17.7666 14.6168C17.0543 14.5372 16.476 13.9768 16.3914 13.2532C16.294 12.4206 16.294 11.5794 16.3914 10.7468C16.476 10.0232 17.0543 9.4628 17.7666 9.38318Z" />
<path fill-rule="evenodd" clip-rule="evenodd" d="M6.06662 17.8739C5.36393 17.7954 4.63594 17.7954 3.93325 17.8739C3.9202 17.8754 3.90729 17.8813 3.89668 17.8917C3.88631 17.9019 3.88227 17.9123 3.88124 17.921C3.7974 18.6379 3.7974 19.3621 3.88124 20.079C3.88227 20.0878 3.88631 20.0981 3.89668 20.1083C3.90729 20.1188 3.9202 20.1247 3.93325 20.1261C4.63594 20.2047 5.36393 20.2047 6.06662 20.1261C6.07967 20.1247 6.09258 20.1188 6.10319 20.1083C6.11356 20.0981 6.1176 20.0878 6.11863 20.079C6.20247 19.3621 6.20247 18.6379 6.11863 17.921C6.1176 17.9123 6.11356 17.9019 6.10319 17.8917C6.09258 17.8813 6.07967 17.8754 6.06662 17.8739ZM3.76664 16.3832C4.58006 16.2923 5.41981 16.2923 6.23323 16.3832C6.94555 16.4628 7.52384 17.0232 7.60847 17.7468C7.70586 18.5794 7.70586 19.4206 7.60847 20.2532C7.52384 20.9768 6.94555 21.5372 6.23323 21.6168C5.41981 21.7078 4.58006 21.7078 3.76664 21.6168C3.05432 21.5372 2.47603 20.9768 2.3914 20.2532C2.29401 19.4206 2.29401 18.5794 2.3914 17.7468C2.47603 17.0232 3.05432 16.4628 3.76664 16.3832Z" />
<path fill-rule="evenodd" clip-rule="evenodd" d="M13.0666 17.8739C12.3639 17.7954 11.6359 17.7954 10.9333 17.8739C10.9202 17.8754 10.9073 17.8813 10.8967 17.8917C10.8863 17.9019 10.8823 17.9123 10.8812 17.921C10.7974 18.6379 10.7974 19.3621 10.8812 20.079C10.8823 20.0878 10.8863 20.0981 10.8967 20.1083C10.9073 20.1188 10.9202 20.1247 10.9333 20.1261C11.6359 20.2047 12.3639 20.2047 13.0666 20.1261C13.0797 20.1247 13.0926 20.1188 13.1032 20.1083C13.1136 20.0981 13.1176 20.0878 13.1186 20.079C13.2025 19.3621 13.2025 18.6379 13.1186 17.921C13.1176 17.9123 13.1136 17.9019 13.1032 17.8917C13.0926 17.8813 13.0797 17.8754 13.0666 17.8739ZM10.7666 16.3832C11.5801 16.2923 12.4198 16.2923 13.2332 16.3832C13.9456 16.4628 14.5238 17.0232 14.6085 17.7468C14.7059 18.5794 14.7059 19.4206 14.6085 20.2532C14.5238 20.9768 13.9456 21.5372 13.2332 21.6168C12.4198 21.7078 11.5801 21.7078 10.7666 21.6168C10.0543 21.5372 9.47603 20.9768 9.3914 20.2532C9.29401 19.4206 9.29401 18.5794 9.3914 17.7468C9.47603 17.0232 10.0543 16.4628 10.7666 16.3832Z" />
<path fill-rule="evenodd" clip-rule="evenodd" d="M20.0666 17.8739C19.3639 17.7954 18.6359 17.7954 17.9333 17.8739C17.9202 17.8754 17.9073 17.8813 17.8967 17.8917C17.8863 17.9019 17.8823 17.9123 17.8812 17.921C17.7974 18.6379 17.7974 19.3621 17.8812 20.079C17.8823 20.0878 17.8863 20.0981 17.8967 20.1083C17.9073 20.1188 17.9202 20.1247 17.9333 20.1261C18.6359 20.2047 19.3639 20.2047 20.0666 20.1261C20.0797 20.1247 20.0926 20.1188 20.1032 20.1083C20.1136 20.0981 20.1176 20.0878 20.1186 20.079C20.2025 19.3621 20.2025 18.6379 20.1186 17.921C20.1176 17.9123 20.1136 17.9019 20.1032 17.8917C20.0926 17.8813 20.0797 17.8754 20.0666 17.8739ZM17.7666 16.3832C18.5801 16.2923 19.4198 16.2923 20.2332 16.3832C20.9456 16.4628 21.5238 17.0232 21.6085 17.7468C21.7059 18.5794 21.7059 19.4206 21.6085 20.2532C21.5238 20.9768 20.9456 21.5372 20.2332 21.6168C19.4198 21.7078 18.5801 21.7078 17.7666 21.6168C17.0543 21.5372 16.476 20.9768 16.3914 20.2532C16.294 19.4206 16.294 18.5794 16.3914 17.7468C16.476 17.0232 17.0543 16.4628 17.7666 16.3832Z" />
</svg>
