<svg width="24" height="24" viewBox="0 0 24 24" fill="black" xmlns="http://www.w3.org/2000/svg">
<path fill-rule="evenodd" clip-rule="evenodd" d="M18.8076 4.95727C17.4735 4.54566 16.0265 4.54566 14.6924 4.95727C14.2409 9.64158 14.2409 14.3585 14.6924 19.0428C16.0265 19.4544 17.4735 19.4544 18.8076 19.0428C19.259 14.3585 19.259 9.64159 18.8076 4.95727ZM20.2905 4.70878C20.7647 9.55804 20.7647 14.442 20.2905 19.2913C20.2382 19.8258 19.8719 20.2751 19.3662 20.4393C17.6731 20.9889 15.8269 20.9889 14.1338 20.4393C13.628 20.2751 13.2617 19.8258 13.2094 19.2913C12.7352 14.442 12.7352 9.55804 13.2094 4.70877C13.2617 4.17422 13.628 3.72495 14.1338 3.56077C15.8269 3.01116 17.6731 3.01116 19.3662 3.56077C19.8719 3.72495 20.2382 4.17422 20.2905 4.70878Z" />
<path fill-rule="evenodd" clip-rule="evenodd" d="M9.30758 4.95726C7.97349 4.54566 6.52645 4.54566 5.19236 4.95726C4.74089 9.64158 4.74089 14.3585 5.19236 19.0428C6.52645 19.4544 7.97349 19.4544 9.30758 19.0428C9.75904 14.3585 9.75904 9.64158 9.30758 4.95726ZM10.7905 4.70877C11.2647 9.55804 11.2647 14.442 10.7905 19.2913C10.7382 19.8258 10.3719 20.2751 9.86616 20.4393C8.17307 20.9889 6.32686 20.9889 4.63377 20.4393C4.128 20.2751 3.76171 19.8258 3.70943 19.2913C3.2352 14.442 3.2352 9.55804 3.70943 4.70877C3.76171 4.17422 4.128 3.72495 4.63377 3.56077C6.32686 3.01116 8.17308 3.01116 9.86617 3.56077C10.3719 3.72495 10.7382 4.17422 10.7905 4.70877Z" />
</svg>
