<svg width="14" height="14" viewBox="0 0 14 14" fill="none" xmlns="http://www.w3.org/2000/svg">
<path d="M9.65364 7L13.6337 3.09102C14.1221 2.61133 14.1221 1.83359 13.6337 1.35352L12.7491 0.484766C12.2607 0.00507814 11.4689 0.00507814 10.9801 0.484766L7 4.39375L3.01994 0.484766C2.53153 0.00507814 1.73966 0.00507814 1.25085 0.484766L0.366307 1.35352C-0.122102 1.8332 -0.122102 2.61094 0.366307 3.09102L4.34636 7L0.366307 10.909C-0.122102 11.3887 -0.122102 12.1664 0.366307 12.6465L1.25085 13.5152C1.73926 13.9949 2.53153 13.9949 3.01994 13.5152L7 9.60625L10.9801 13.5152C11.4685 13.9949 12.2607 13.9949 12.7491 13.5152L13.6337 12.6465C14.1221 12.1668 14.1221 11.3891 13.6337 10.909L9.65364 7Z" fill="black"/>
</svg>
