<svg width="24" height="24" viewBox="0 0 24 24" fill="black" xmlns="http://www.w3.org/2000/svg">
<path fill-rule="evenodd" clip-rule="evenodd" d="M13.6641 6.34314C13.6641 6.75735 13.9999 7.09314 14.4141 7.09314L16.9068 7.09314V9.58578C16.9068 9.99999 17.2426 10.3358 17.6568 10.3358C18.071 10.3358 18.4068 9.99999 18.4068 9.58578V6.34314C18.4068 5.92893 18.071 5.59314 17.6568 5.59314L14.4141 5.59314C13.9999 5.59314 13.6641 5.92893 13.6641 6.34314Z" />
<path fill-rule="evenodd" clip-rule="evenodd" d="M17.6567 13.6642C17.2425 13.6642 16.9067 14 16.9067 14.4142L16.9067 16.9069L14.4141 16.9069C13.9999 16.9069 13.6641 17.2426 13.6641 17.6569C13.6641 18.0711 13.9999 18.4069 14.4141 18.4069L17.6567 18.4069C18.071 18.4069 18.4067 18.0711 18.4067 17.6569L18.4067 14.4142C18.4067 14 18.071 13.6642 17.6567 13.6642Z" />
<path fill-rule="evenodd" clip-rule="evenodd" d="M6.34304 13.6642C6.75726 13.6642 7.09304 14 7.09304 14.4142L7.09304 16.9069L9.58569 16.9069C9.9999 16.9069 10.3357 17.2426 10.3357 17.6569C10.3357 18.0711 9.9999 18.4069 9.58569 18.4069L6.34304 18.4069C5.92883 18.4069 5.59304 18.0711 5.59304 17.6569L5.59304 14.4142C5.59304 14 5.92883 13.6642 6.34304 13.6642Z" />
<path fill-rule="evenodd" clip-rule="evenodd" d="M10.3357 6.34314C10.3357 6.75735 9.99987 7.09314 9.58566 7.09314L7.09302 7.09314L7.09302 9.58578C7.09302 9.99999 6.75723 10.3358 6.34302 10.3358C5.9288 10.3358 5.59302 9.99999 5.59302 9.58578L5.59302 6.34314C5.59302 5.92893 5.92881 5.59314 6.34302 5.59314L9.58566 5.59314C9.99987 5.59314 10.3357 5.92893 10.3357 6.34314Z" />
</svg>
