<svg width="24" height="24" viewBox="0 0 24 24" fill="black" xmlns="http://www.w3.org/2000/svg">
<path fill-rule="evenodd" clip-rule="evenodd" d="M11.1986 2.58722C11.6969 2.31036 12.3029 2.31036 12.8012 2.58722L20.0012 6.58722C20.525 6.87823 20.8499 7.43035 20.8499 8.02958V15.9705C20.8499 16.5697 20.525 17.1218 20.0012 17.4128L12.8012 21.4128C12.3029 21.6897 11.6969 21.6897 11.1986 21.4128L3.99859 17.4128C3.47477 17.1218 3.1499 16.5697 3.1499 15.9705V8.02958C3.1499 7.43035 3.47477 6.87823 3.99859 6.58722L11.1986 2.58722ZM12.0728 3.89845C12.0274 3.87329 11.9724 3.87329 11.9271 3.89845L4.72706 7.89845C4.67944 7.92491 4.6499 7.9751 4.6499 8.02958V15.9705C4.6499 16.0249 4.67944 16.0751 4.72705 16.1016L11.9271 20.1016C11.9724 20.1267 12.0274 20.1267 12.0728 20.1016L19.2728 16.1016C19.3204 16.0751 19.3499 16.0249 19.3499 15.9705V8.02958C19.3499 7.9751 19.3204 7.92491 19.2728 7.89845L12.0728 3.89845Z" />
<path fill-rule="evenodd" clip-rule="evenodd" d="M7.2499 12C7.2499 9.37666 9.37655 7.25001 11.9999 7.25001C14.6233 7.25001 16.7499 9.37666 16.7499 12C16.7499 14.6234 14.6233 16.75 11.9999 16.75C9.37655 16.75 7.2499 14.6234 7.2499 12ZM11.9999 8.75001C10.205 8.75001 8.7499 10.2051 8.7499 12C8.7499 13.7949 10.205 15.25 11.9999 15.25C13.7948 15.25 15.2499 13.7949 15.2499 12C15.2499 10.2051 13.7948 8.75001 11.9999 8.75001Z" />
</svg>
