<svg width="24" height="24" viewBox="0 0 24 24" fill="black" xmlns="http://www.w3.org/2000/svg">
<path d="M7.70007 9.45001C7.28586 9.45001 6.95007 9.7858 6.95007 10.2C6.95007 10.6142 7.28586 10.95 7.70007 10.95H12.7001C13.1143 10.95 13.4501 10.6142 13.4501 10.2C13.4501 9.7858 13.1143 9.45001 12.7001 9.45001H7.70007Z" />
<path fill-rule="evenodd" clip-rule="evenodd" d="M5.39866 14.9445C7.85544 17.4013 11.7349 17.5684 14.3851 15.4457L19.5408 20.6014C19.8337 20.8943 20.3085 20.8943 20.6014 20.6014C20.8943 20.3085 20.8943 19.8336 20.6014 19.5407L15.4458 14.3851C17.5685 11.7348 17.4014 7.85538 14.9446 5.3986C12.3086 2.76256 8.0347 2.76256 5.39866 5.3986C2.76262 8.03464 2.76262 12.3085 5.39866 14.9445ZM6.45932 6.45926C4.40907 8.50951 4.40907 11.8336 6.45932 13.8839C8.50807 15.9326 11.8288 15.9341 13.8794 13.8884L13.8839 13.8839L13.8885 13.8794C15.9342 11.8287 15.9327 8.50801 13.8839 6.45926C11.8337 4.40901 8.50957 4.40901 6.45932 6.45926Z" />
</svg>
